<svg width="147" height="38" viewBox="0 0 147 38" fill="none" xmlns="http://www.w3.org/2000/svg">
<path d="M0.15 36.5V1.5H8.25V29.9H25.8V36.5H0.15ZM46.7887 37.1C44.022 37.1 41.4553 36.65 39.0887 35.75C36.7553 34.85 34.722 33.5833 32.9887 31.95C31.2887 30.3167 29.9553 28.4 28.9887 26.2C28.0553 24 27.5887 21.6 27.5887 19C27.5887 16.4 28.0553 14 28.9887 11.8C29.9553 9.6 31.3053 7.68333 33.0387 6.05C34.772 4.41666 36.8053 3.15 39.1387 2.25C41.472 1.35 44.0053 0.899999 46.7387 0.899999C49.5053 0.899999 52.0387 1.35 54.3387 2.25C56.672 3.15 58.6887 4.41666 60.3887 6.05C62.122 7.68333 63.472 9.6 64.4387 11.8C65.4053 13.9667 65.8887 16.3667 65.8887 19C65.8887 21.6 65.4053 24.0167 64.4387 26.25C63.472 28.45 62.122 30.3667 60.3887 32C58.6887 33.6 56.672 34.85 54.3387 35.75C52.0387 36.65 49.522 37.1 46.7887 37.1ZM46.7387 30.2C48.3053 30.2 49.7387 29.9333 51.0387 29.4C52.372 28.8667 53.5387 28.1 54.5387 27.1C55.5387 26.1 56.3053 24.9167 56.8387 23.55C57.4053 22.1833 57.6887 20.6667 57.6887 19C57.6887 17.3333 57.4053 15.8167 56.8387 14.45C56.3053 13.0833 55.5387 11.9 54.5387 10.9C53.572 9.9 52.422 9.13333 51.0887 8.6C49.7553 8.06667 48.3053 7.8 46.7387 7.8C45.172 7.8 43.722 8.06667 42.3887 8.6C41.0887 9.13333 39.9387 9.9 38.9387 10.9C37.9387 11.9 37.1553 13.0833 36.5887 14.45C36.0553 15.8167 35.7887 17.3333 35.7887 19C35.7887 20.6333 36.0553 22.15 36.5887 23.55C37.1553 24.9167 37.922 26.1 38.8887 27.1C39.8887 28.1 41.0553 28.8667 42.3887 29.4C43.722 29.9333 45.172 30.2 46.7387 30.2ZM88.8762 37.1C86.1095 37.1 83.5595 36.6667 81.2262 35.8C78.9262 34.9 76.9095 33.6333 75.1762 32C73.4762 30.3667 72.1428 28.45 71.1762 26.25C70.2428 24.05 69.7762 21.6333 69.7762 19C69.7762 16.3667 70.2428 13.95 71.1762 11.75C72.1428 9.55 73.4928 7.63333 75.2262 6C76.9595 4.36667 78.9928 3.11666 81.3262 2.25C83.6595 1.35 86.2262 0.899999 89.0262 0.899999C92.1262 0.899999 94.9095 1.41667 97.3762 2.45C99.8762 3.48333 101.976 4.98333 103.676 6.95L98.4762 11.75C97.2095 10.4167 95.8262 9.43333 94.3262 8.8C92.8262 8.13333 91.1928 7.8 89.4262 7.8C87.7262 7.8 86.1762 8.06667 84.7762 8.6C83.3762 9.13333 82.1595 9.9 81.1262 10.9C80.1262 11.9 79.3428 13.0833 78.7762 14.45C78.2428 15.8167 77.9762 17.3333 77.9762 19C77.9762 20.6333 78.2428 22.1333 78.7762 23.5C79.3428 24.8667 80.1262 26.0667 81.1262 27.1C82.1595 28.1 83.3595 28.8667 84.7262 29.4C86.1262 29.9333 87.6595 30.2 89.3262 30.2C90.9262 30.2 92.4762 29.95 93.9762 29.45C95.5095 28.9167 96.9928 28.0333 98.4262 26.8L103.026 32.65C101.126 34.0833 98.9095 35.1833 96.3762 35.95C93.8762 36.7167 91.3762 37.1 88.8762 37.1ZM95.6262 31.6V18.45H103.026V32.65L95.6262 31.6ZM127.55 37.1C124.784 37.1 122.217 36.65 119.85 35.75C117.517 34.85 115.484 33.5833 113.75 31.95C112.05 30.3167 110.717 28.4 109.75 26.2C108.817 24 108.35 21.6 108.35 19C108.35 16.4 108.817 14 109.75 11.8C110.717 9.6 112.067 7.68333 113.8 6.05C115.534 4.41666 117.567 3.15 119.9 2.25C122.234 1.35 124.767 0.899999 127.5 0.899999C130.267 0.899999 132.8 1.35 135.1 2.25C137.434 3.15 139.45 4.41666 141.15 6.05C142.884 7.68333 144.234 9.6 145.2 11.8C146.167 13.9667 146.65 16.3667 146.65 19C146.65 21.6 146.167 24.0167 145.2 26.25C144.234 28.45 142.884 30.3667 141.15 32C139.45 33.6 137.434 34.85 135.1 35.75C132.8 36.65 130.284 37.1 127.55 37.1ZM127.5 30.2C129.067 30.2 130.5 29.9333 131.8 29.4C133.134 28.8667 134.3 28.1 135.3 27.1C136.3 26.1 137.067 24.9167 137.6 23.55C138.167 22.1833 138.45 20.6667 138.45 19C138.45 17.3333 138.167 15.8167 137.6 14.45C137.067 13.0833 136.3 11.9 135.3 10.9C134.334 9.9 133.184 9.13333 131.85 8.6C130.517 8.06667 129.067 7.8 127.5 7.8C125.934 7.8 124.484 8.06667 123.15 8.6C121.85 9.13333 120.7 9.9 119.7 10.9C118.7 11.9 117.917 13.0833 117.35 14.45C116.817 15.8167 116.55 17.3333 116.55 19C116.55 20.6333 116.817 22.15 117.35 23.55C117.917 24.9167 118.684 26.1 119.65 27.1C120.65 28.1 121.817 28.8667 123.15 29.4C124.484 29.9333 125.934 30.2 127.5 30.2Z" fill="white"/>
</svg>
