<svg width="8" height="7" viewBox="0 0 8 7" fill="none" xmlns="http://www.w3.org/2000/svg">
<path d="M2.9214 6.27847C2.8866 6.24457 2.7378 6.11656 2.6154 5.99732C1.8456 5.29825 0.5856 3.47457 0.201 2.52007C0.1392 2.37511 0.0084 2.00862 0 1.81281C0 1.62518 0.0432 1.44632 0.1308 1.27565C0.2532 1.06288 0.4458 0.892207 0.6732 0.798685C0.831 0.73848 1.3032 0.644959 1.3116 0.644959C1.8282 0.551437 2.6676 0.5 3.5952 0.5C4.479 0.5 5.2842 0.551437 5.8086 0.628008C5.817 0.636775 6.4038 0.730297 6.6048 0.832586C6.972 1.02021 7.2 1.3867 7.2 1.77891V1.81281C7.191 2.06824 6.963 2.60541 6.9546 2.60541C6.5694 3.50848 5.3712 5.29006 4.575 6.00609C4.575 6.00609 4.3704 6.20775 4.2426 6.29542C4.059 6.4322 3.8316 6.5 3.6042 6.5C3.3504 6.5 3.114 6.42343 2.9214 6.27847Z" fill="black"/>
</svg>
