<svg width="12" height="8" viewBox="0 0 12 8" fill="none" xmlns="http://www.w3.org/2000/svg">
<path d="M4.35045 7.88336C4.19575 7.88332 4.0474 7.82184 3.93803 7.71244L0.638114 4.41252C0.531855 4.3025 0.473058 4.15515 0.474387 4.0022C0.475716 3.84926 0.537065 3.70295 0.64522 3.59479C0.753374 3.48664 0.899682 3.42529 1.05263 3.42396C1.20558 3.42263 1.35293 3.48143 1.46295 3.58769L4.35045 6.47519L10.5373 0.287772C10.6473 0.181513 10.7946 0.122716 10.9476 0.124045C11.1005 0.125375 11.2469 0.186723 11.355 0.294878C11.4632 0.403032 11.5245 0.54934 11.5258 0.702288C11.5272 0.855236 11.4684 1.00259 11.3621 1.11261L4.76286 7.71244C4.65349 7.82184 4.50514 7.88332 4.35045 7.88336Z" fill="#46B4DE"/>
</svg>
