<svg width="18" height="25" viewBox="0 0 18 25" fill="none" xmlns="http://www.w3.org/2000/svg">
<g clip-path="url(#clip0_6548_51827)">
<path d="M10.125 1.31939C10.125 0.740917 9.62132 0.271973 9 0.271973C8.37868 0.271973 7.875 0.740917 7.875 1.31939V23.3152C7.875 23.8936 8.37868 24.3626 9 24.3626C9.62132 24.3626 10.125 23.8936 10.125 23.3152V1.31939Z" fill="#333333"/>
<path d="M18 7.60381C18 7.02534 17.4963 6.5564 16.875 6.5564C16.2537 6.5564 15.75 7.02534 15.75 7.60381V23.3151C15.75 23.8935 16.2537 24.3625 16.875 24.3625C17.4963 24.3625 18 23.8935 18 23.3151V7.60381Z" fill="#333333"/>
<path d="M2.25 10.7461C2.25 10.1677 1.74632 9.69873 1.125 9.69873C0.50368 9.69873 0 10.1677 0 10.7461V23.3152C0 23.8936 0.50368 24.3626 1.125 24.3626C1.74632 24.3626 2.25 23.8936 2.25 23.3152V10.7461Z" fill="#333333"/>
</g>
<defs>
<clipPath id="clip0_6548_51827">
<rect width="18" height="24.0906" fill="white" transform="translate(0 0.271973)"/>
</clipPath>
</defs>
</svg>
