<svg width="10" height="4" viewBox="0 0 10 4" fill="none" xmlns="http://www.w3.org/2000/svg">
<path d="M1.30761 3.098C0.990276 3.098 0.719609 2.99067 0.495609 2.776C0.271609 2.552 0.159609 2.272 0.159609 1.936C0.159609 1.58133 0.271609 1.30133 0.495609 1.096C0.719609 0.881333 0.990276 0.774 1.30761 0.774C1.62494 0.774 1.89561 0.881333 2.11961 1.096C2.34361 1.30133 2.45561 1.58133 2.45561 1.936C2.45561 2.272 2.34361 2.552 2.11961 2.776C1.89561 2.99067 1.62494 3.098 1.30761 3.098ZM4.72558 3.098C4.40824 3.098 4.13758 2.99067 3.91358 2.776C3.68958 2.552 3.57758 2.272 3.57758 1.936C3.57758 1.58133 3.68958 1.30133 3.91358 1.096C4.13758 0.881333 4.40824 0.774 4.72558 0.774C5.04291 0.774 5.31358 0.881333 5.53758 1.096C5.76158 1.30133 5.87358 1.58133 5.87358 1.936C5.87358 2.272 5.76158 2.552 5.53758 2.776C5.31358 2.99067 5.04291 3.098 4.72558 3.098ZM8.14355 3.098C7.82621 3.098 7.55555 2.99067 7.33155 2.776C7.10755 2.552 6.99555 2.272 6.99555 1.936C6.99555 1.58133 7.10755 1.30133 7.33155 1.096C7.55555 0.881333 7.82621 0.774 8.14355 0.774C8.46088 0.774 8.73155 0.881333 8.95555 1.096C9.17955 1.30133 9.29155 1.58133 9.29155 1.936C9.29155 2.272 9.17955 2.552 8.95555 2.776C8.73155 2.99067 8.46088 3.098 8.14355 3.098Z" fill="black"/>
</svg>
