<svg width="33" height="32" viewBox="0 0 33 32" fill="none" xmlns="http://www.w3.org/2000/svg">
<path fill-rule="evenodd" clip-rule="evenodd" d="M4.65731 16.623C4.44797 16.235 4.44797 15.7643 4.65731 15.3763C7.17997 10.711 11.84 6.66699 16.5 6.66699C21.16 6.66699 25.82 10.711 28.3426 15.3777C28.552 15.7657 28.552 16.2363 28.3426 16.6243C25.82 21.2897 21.16 25.3337 16.5 25.3337C11.84 25.3337 7.17997 21.2897 4.65731 16.623Z" stroke="white" stroke-width="2" stroke-linecap="round" stroke-linejoin="round"/>
<path d="M19.3284 13.1716C20.8905 14.7337 20.8905 17.2663 19.3284 18.8284C17.7663 20.3905 15.2337 20.3905 13.6716 18.8284C12.1095 17.2663 12.1095 14.7337 13.6716 13.1716C15.2337 11.6095 17.7663 11.6095 19.3284 13.1716" stroke="white" stroke-width="1.9048" stroke-linecap="round" stroke-linejoin="round"/>
</svg>
