<svg width="17" height="17" viewBox="0 0 17 18" fill="none" xmlns="http://www.w3.org/2000/svg">
<path d="M8.5 0.914307C3.81565 0.914307 0 4.72995 0 9.41431C0 14.0987 3.81565 17.9143 8.5 17.9143C13.1844 17.9143 17 14.0987 17 9.41431C17 4.72995 13.1844 0.914307 8.5 0.914307ZM8.5 2.61431C12.2656 2.61431 15.3 5.6487 15.3 9.41431C15.3 12.8266 12.8055 15.6304 9.53594 16.128V11.4414H11.5148L11.8253 9.43091H9.53594V8.33188C9.53594 7.49633 9.80814 6.75474 10.5901 6.75474H11.8452V4.99995C11.6242 4.9702 11.1578 4.90532 10.2764 4.90532C8.43527 4.90532 7.35615 5.87772 7.35615 8.09282V9.43091H5.46357V11.4414H7.35615V16.1114C4.13975 15.569 1.7 12.789 1.7 9.41431C1.7 5.6487 4.7344 2.61431 8.5 2.61431Z" fill="#3757EA"/>
</svg>
