<svg width="30" height="30" viewBox="0 0 30 30" fill="none" xmlns="http://www.w3.org/2000/svg">
<g clip-path="url(#clip0_7657_54169)">
<path d="M24.3756 16.9675L15.0006 26.2525L5.62562 16.9675C5.00725 16.3658 4.52017 15.6426 4.19506 14.8433C3.86994 14.0441 3.71382 13.1862 3.73654 12.3237C3.75926 11.4612 3.96032 10.6127 4.32707 9.83171C4.69381 9.05071 5.21829 8.35411 5.86748 7.78577C6.51667 7.21742 7.2765 6.78965 8.09913 6.52939C8.92177 6.26913 9.78938 6.18202 10.6473 6.27354C11.5053 6.36506 12.335 6.63324 13.0842 7.06117C13.8334 7.48911 14.4859 8.06754 15.0006 8.76004C15.5175 8.07257 16.1708 7.49919 16.9195 7.0758C17.6682 6.6524 18.4962 6.3881 19.3518 6.29944C20.2073 6.21078 21.072 6.29966 21.8916 6.56053C22.7112 6.8214 23.4682 7.24863 24.1151 7.81549C24.762 8.38236 25.2849 9.07665 25.6511 9.85491C26.0174 10.6332 26.219 11.4786 26.2435 12.3384C26.268 13.1982 26.1147 14.0538 25.7933 14.8516C25.4719 15.6494 24.9893 16.3723 24.3756 16.975" stroke="white" stroke-width="2" stroke-linecap="round" stroke-linejoin="round"/>
</g>
<defs>
<clipPath id="clip0_7657_54169">
<rect width="30" height="30" fill="white" transform="translate(0 0.00195312)"/>
</clipPath>
</defs>
</svg>
