<svg width="25" height="22" viewBox="0 0 25 22" fill="none" xmlns="http://www.w3.org/2000/svg">
<path d="M18.3229 0.247314C15.8422 0.247314 13.6503 1.5514 12.5 3.5164C11.3497 1.5514 9.15788 0.247314 6.67713 0.247314C2.99534 0.247314 0 3.12284 0 6.65736C0 9.48738 2.04661 12.8771 6.08298 16.7323C9.0179 19.5355 11.9058 21.524 12.0273 21.6073C12.1687 21.7042 12.3344 21.7526 12.5 21.7526C12.6656 21.7526 12.8313 21.7042 12.9727 21.6073C13.0942 21.524 15.9821 19.5355 18.917 16.7323C22.9534 12.8771 25 9.48738 25 6.65736C25 3.12284 22.0047 0.247314 18.3229 0.247314ZM17.7846 15.6105C15.6238 17.6765 13.4366 19.3217 12.5 20C11.5634 19.3217 9.37623 17.6765 7.21535 15.6105C3.55944 12.1152 1.62705 9.01925 1.62705 6.65736C1.62705 3.98411 3.89249 1.80928 6.67713 1.80928C9.2413 1.80928 11.3972 3.65078 11.6919 6.09276C11.7394 6.48663 12.0869 6.78382 12.5 6.78382C12.9131 6.78382 13.2605 6.48663 13.3081 6.09276C13.6029 3.65078 15.7587 1.80928 18.3229 1.80928C21.1075 1.80928 23.373 3.98411 23.373 6.65736C23.373 9.01925 21.4406 12.1152 17.7846 15.6105Z" fill="#333333"/>
</svg>
