<svg width="17" height="19" viewBox="0 0 17 19" fill="none" xmlns="http://www.w3.org/2000/svg">
<path d="M12.9067 5.85365C13.47 5.85365 13.9267 5.35784 13.9267 4.74622C13.9267 4.13461 13.47 3.63879 12.9067 3.63879C12.3434 3.63879 11.8867 4.13461 11.8867 4.74622C11.8867 5.35784 12.3434 5.85365 12.9067 5.85365Z" fill="#FA692C"/>
<path fill-rule="evenodd" clip-rule="evenodd" d="M4.25 9.48514C4.25 12.0299 6.15612 14.0994 8.5 14.0994C10.8439 14.0994 12.75 12.0299 12.75 9.48514C12.75 6.94036 10.8439 4.87085 8.5 4.87085C6.15612 4.87085 4.25 6.94036 4.25 9.48514ZM6.375 9.48567C6.375 8.21328 7.32806 7.17852 8.5 7.17852C9.67194 7.17852 10.625 8.21328 10.625 9.48567C10.625 10.7581 9.67194 11.7928 8.5 11.7928C7.32806 11.7928 6.375 10.7581 6.375 9.48567Z" fill="#FA692C"/>
<path fill-rule="evenodd" clip-rule="evenodd" d="M4.25 18.7143H12.75C14.9345 18.7143 17 16.4718 17 14.1001V4.87149C17 2.49974 14.9345 0.257202 12.75 0.257202H4.25C2.0655 0.257202 0 2.49974 0 4.87149V14.1001C0 16.4718 2.0655 18.7143 4.25 18.7143ZM2.125 4.87261C2.125 3.79403 3.25656 2.56547 4.25 2.56547H12.75C13.7434 2.56547 14.875 3.79403 14.875 4.87261V14.1012C14.875 15.1798 13.7434 16.4083 12.75 16.4083H4.25C3.23744 16.4083 2.125 15.2005 2.125 14.1012V4.87261Z" fill="#FA692C"/>
</svg>
