<svg width="19" height="20" viewBox="0 0 19 20" fill="none" xmlns="http://www.w3.org/2000/svg">
<path d="M14.1172 6.38679C14.7256 6.38679 15.2188 5.89359 15.2188 5.28519C15.2188 4.6768 14.7256 4.18359 14.1172 4.18359C13.5088 4.18359 13.0156 4.6768 13.0156 5.28519C13.0156 5.89359 13.5088 6.38679 14.1172 6.38679Z" fill="#FA692C"/>
<path fill-rule="evenodd" clip-rule="evenodd" d="M4.76953 10.0002C4.76953 12.5315 6.82815 14.5902 9.35953 14.5902C11.8909 14.5902 13.9495 12.5315 13.9495 10.0002C13.9495 7.46877 11.8909 5.41016 9.35953 5.41016C6.82815 5.41016 4.76953 7.46877 4.76953 10.0002ZM7.06445 10.0011C7.06445 8.73536 8.09376 7.70605 9.35945 7.70605C10.6251 7.70605 11.6545 8.73536 11.6545 10.0011C11.6545 11.2667 10.6251 12.2961 9.35945 12.2961C8.09376 12.2961 7.06445 11.2667 7.06445 10.0011Z" fill="#FA692C"/>
<path fill-rule="evenodd" clip-rule="evenodd" d="M4.76969 19.1803H13.9497C16.3089 19.1803 18.5397 16.9496 18.5397 14.5903V5.41031C18.5397 3.05105 16.3089 0.820312 13.9497 0.820312H4.76969C2.41043 0.820312 0.179688 3.05105 0.179688 5.41031V14.5903C0.179688 16.9496 2.41043 19.1803 4.76969 19.1803ZM2.47469 5.41143C2.47469 4.33852 3.69677 3.11643 4.76969 3.11643H13.9497C15.0226 3.11643 16.2447 4.33852 16.2447 5.41143V14.5914C16.2447 15.6643 15.0226 16.8864 13.9497 16.8864H4.76969C3.67612 16.8864 2.47469 15.685 2.47469 14.5914V5.41143Z" fill="#FA692C"/>
</svg>
