<svg width="26" height="25" viewBox="0 0 26 25" fill="none" xmlns="http://www.w3.org/2000/svg">
<rect x="2.59375" y="2.0625" width="20.875" height="20.875" rx="5.5" stroke="white"/>
<path d="M18.5 8.20312C18.5 8.85033 17.9753 9.375 17.3281 9.375C16.6809 9.375 16.1562 8.85033 16.1562 8.20312C16.1562 7.55592 16.6809 7.03125 17.3281 7.03125C17.9753 7.03125 18.5 7.55592 18.5 8.20312Z" fill="white"/>
<path fill-rule="evenodd" clip-rule="evenodd" d="M13.0312 16.4062C15.1886 16.4062 16.9375 14.6574 16.9375 12.5C16.9375 10.3426 15.1886 8.59375 13.0312 8.59375C10.8739 8.59375 9.125 10.3426 9.125 12.5C9.125 14.6574 10.8739 16.4062 13.0312 16.4062ZM13.0312 14.8438C14.3257 14.8438 15.375 13.7944 15.375 12.5C15.375 11.2056 14.3257 10.1562 13.0312 10.1562C11.7368 10.1562 10.6875 11.2056 10.6875 12.5C10.6875 13.7944 11.7368 14.8438 13.0312 14.8438Z" fill="white"/>
<path fill-rule="evenodd" clip-rule="evenodd" d="M5.21875 12.1875C5.21875 9.56225 5.21875 8.24963 5.72966 7.24692C6.17906 6.36491 6.89616 5.64781 7.77817 5.19841C8.78088 4.6875 10.0935 4.6875 12.7188 4.6875H13.3438C15.969 4.6875 17.2816 4.6875 18.2843 5.19841C19.1663 5.64781 19.8834 6.36491 20.3328 7.24692C20.8438 8.24963 20.8438 9.56225 20.8438 12.1875V12.8125C20.8438 15.4377 20.8438 16.7504 20.3328 17.7531C19.8834 18.6351 19.1663 19.3522 18.2843 19.8016C17.2816 20.3125 15.969 20.3125 13.3438 20.3125H12.7188C10.0935 20.3125 8.78088 20.3125 7.77817 19.8016C6.89616 19.3522 6.17906 18.6351 5.72966 17.7531C5.21875 16.7504 5.21875 15.4377 5.21875 12.8125V12.1875ZM12.7188 6.25H13.3438C14.6822 6.25 15.592 6.25122 16.2953 6.30867C16.9803 6.36464 17.3306 6.46609 17.575 6.5906C18.163 6.89021 18.641 7.36827 18.9406 7.95628C19.0652 8.20065 19.1666 8.55097 19.2226 9.236C19.28 9.93926 19.2812 10.8491 19.2812 12.1875V12.8125C19.2812 14.1509 19.28 15.0607 19.2226 15.764C19.1666 16.449 19.0652 16.7993 18.9406 17.0437C18.641 17.6317 18.163 18.1098 17.575 18.4094C17.3306 18.5339 16.9803 18.6354 16.2953 18.6913C15.592 18.7488 14.6822 18.75 13.3438 18.75H12.7188C11.3803 18.75 10.4705 18.7488 9.76725 18.6913C9.08222 18.6354 8.7319 18.5339 8.48753 18.4094C7.89952 18.1098 7.42146 17.6317 7.12185 17.0437C6.99734 16.7993 6.89589 16.449 6.83992 15.764C6.78247 15.0607 6.78125 14.1509 6.78125 12.8125V12.1875C6.78125 10.8491 6.78247 9.93926 6.83992 9.236C6.89589 8.55097 6.99734 8.20065 7.12185 7.95628C7.42146 7.36827 7.89952 6.89021 8.48753 6.5906C8.7319 6.46609 9.08222 6.36464 9.76725 6.30867C10.4705 6.25122 11.3803 6.25 12.7188 6.25Z" fill="white"/>
</svg>
