<svg width="18" height="19" viewBox="0 0 18 19" fill="none" xmlns="http://www.w3.org/2000/svg">
<path d="M3.15411 14.0518C2.40317 13.1719 2 12.1851 2 10.5854C2 7.77042 3.79132 5.24742 6.39628 4L7.04733 5.10828C4.61589 6.55919 4.14054 8.44198 3.95098 9.62908C4.34249 9.4055 4.85503 9.32748 5.35736 9.37896C6.67259 9.51327 7.70933 10.7044 7.70933 12.1851C7.70933 12.9316 7.44048 13.6476 6.96194 14.1755C6.4834 14.7034 5.83435 15 5.15759 15C4.3753 15 3.62728 14.6059 3.15411 14.0518ZM10.4448 14.0518C9.69385 13.1719 9.29067 12.1851 9.29067 10.5854C9.29067 7.77042 11.082 5.24742 13.687 4L14.338 5.10828C11.9066 6.55919 11.4312 8.44198 11.2417 9.62908C11.6332 9.4055 12.1457 9.32748 12.648 9.37896C13.9633 9.51327 15 10.7044 15 12.1851C15 12.9316 14.7312 13.6476 14.2526 14.1755C13.7741 14.7034 13.125 15 12.4483 15C11.666 15 10.918 14.6059 10.4448 14.0518Z" fill="#46B4DE"/>
</svg>
