<svg width="27" height="27" viewBox="0 0 27 27" fill="none" xmlns="http://www.w3.org/2000/svg">
<path d="M26.7109 20.4759C25.7058 18.5759 22.2156 16.5157 22.0619 16.4256C21.6134 16.1703 21.1454 16.0352 20.7074 16.0352C20.0562 16.0352 19.5232 16.3335 19.2003 16.8761C18.6898 17.4867 18.0566 18.2005 17.9029 18.3111C16.7136 19.118 15.7826 19.0264 14.7525 17.9963L9.00337 12.2466C7.97977 11.223 7.88567 10.2805 8.68703 9.09772C8.79915 8.94306 9.51291 8.30938 10.1236 7.79833C10.513 7.56658 10.7803 7.22221 10.8974 6.79975C11.0531 6.23765 10.9384 5.57644 10.5711 4.93225C10.4845 4.78409 8.42324 1.29334 6.5242 0.288761C6.16982 0.10106 5.77039 0.00195312 5.36996 0.00195312C4.71026 0.00195312 4.08959 0.259229 3.62309 0.72523L2.35272 1.99509C0.343567 4.00375 -0.383715 6.2807 0.189902 8.76236C0.668415 10.8306 2.06291 13.0314 4.33535 15.3034L11.6958 22.6638C14.5718 25.5399 17.3138 26.9984 19.8455 26.9984C19.8455 26.9984 19.8455 26.9984 19.846 26.9984C21.708 26.9984 23.4439 26.2071 25.0041 24.6469L26.2739 23.3771C27.0457 22.6057 27.2209 21.4395 26.7109 20.4759Z" fill="white"/>
</svg>
