<svg width="20" height="22" viewBox="0 0 20 22" fill="none" xmlns="http://www.w3.org/2000/svg">
<path fill-rule="evenodd" clip-rule="evenodd" d="M2.30157 3.24259C2.30352 3.24259 2.25474 3.29767 2.19328 3.36334C1.95719 3.61225 1.46842 4.13021 1.46349 5.21379C1.45574 6.72953 2.37376 9.54387 6.79414 14.3421C11.194 19.1171 13.7822 20.1255 15.1812 20.1255H15.2017C16.1997 20.1202 16.6758 19.5884 16.9061 19.3332C16.9763 19.2548 17.0329 19.1976 17.0729 19.1616C18.0446 18.1002 18.5421 17.3101 18.5373 16.8038C18.5304 16.2869 17.9382 15.6757 17.1197 14.8304C16.8592 14.5614 16.5763 14.269 16.2778 13.9449C15.5042 13.1071 15.1208 13.2501 14.2778 13.5721C13.112 14.0159 11.5121 14.6196 9.02627 11.9197C6.53658 9.21869 7.09364 7.48369 7.50143 6.21793C7.79606 5.30276 7.93069 4.88543 7.15608 4.04441C6.85267 3.71606 6.58048 3.40465 6.32976 3.11866C5.55612 2.23527 4.99808 1.59656 4.52493 1.58915H4.51712C4.04982 1.58915 3.32398 2.13147 2.29669 3.24682C2.29962 3.24365 2.30059 3.24259 2.30157 3.24259ZM15.1822 21.7143C12.7511 21.7143 9.58138 19.6128 5.76002 15.466C1.92402 11.3022 -0.0144702 7.85018 8.13174e-05 5.20532C0.00894381 3.45761 0.852825 2.56257 1.16989 2.2268C1.18647 2.20455 1.24306 2.14418 1.26257 2.12299C2.66156 0.603015 3.60495 -0.011331 4.54346 0.000157969C5.63319 0.0162087 6.40878 0.901715 7.39022 2.02343C7.63314 2.30094 7.89655 2.60282 8.1902 2.92058C9.61455 4.46704 9.20871 5.72857 8.88286 6.74118C8.52775 7.84595 8.22044 8.79924 10.0604 10.7969C11.9023 12.7946 12.7803 12.461 13.794 12.0722C14.7276 11.7184 15.8866 11.2757 17.3129 12.8222C17.6017 13.1357 17.8758 13.4185 18.1285 13.6801C19.1665 14.751 19.986 15.5973 19.9998 16.7836C20.0114 17.7952 19.4455 18.8258 18.0485 20.3437L17.43 19.8882L17.9529 20.4432C17.6436 20.7875 16.8202 21.7048 15.2095 21.7143H15.1822Z" fill="black"/>
</svg>
