<svg width="50" height="50" viewBox="0 0 50 50" fill="none" xmlns="http://www.w3.org/2000/svg">
<path d="M32.8912 1.37998C32.0126 2.25885 31.5186 3.451 31.5186 4.69372H34.643C34.643 4.27948 34.8076 3.8822 35.1004 3.58924L32.8912 1.37998ZM31.5186 4.69372C31.5186 5.93644 32.0122 7.12826 32.8908 8.00712L35.1004 5.79818C34.8076 5.50524 34.643 5.10796 34.643 4.69372H31.5186ZM32.8908 8.00712L41.9954 17.1118L44.205 14.9027L35.1004 5.79818L32.8908 8.00712ZM41.9954 17.1118C42.4304 17.5471 42.9468 17.8922 43.5154 18.1278L44.7118 15.2416C44.5222 15.163 44.35 15.0479 44.205 14.9027L41.9954 17.1118ZM43.5154 18.1278C44.084 18.3635 44.6934 18.4849 45.309 18.485L45.3096 15.3606C45.1046 15.3606 44.9014 15.3201 44.7118 15.2416L43.5154 18.1278ZM45.309 18.485C45.9244 18.4852 46.534 18.3641 47.1026 18.1287L45.9076 15.2418C45.718 15.3203 45.5148 15.3607 45.3096 15.3606L45.309 18.485ZM47.1026 18.1287C47.6714 17.8933 48.188 17.5482 48.6234 17.1131L46.4146 14.9033C46.2694 15.0483 46.0972 15.1634 45.9076 15.2418L47.1026 18.1287ZM48.6234 17.1131C49.0586 16.6779 49.404 16.1614 49.6398 15.5928L46.7534 14.3964C46.6748 14.586 46.5598 14.7582 46.4146 14.9033L48.6234 17.1131ZM49.6398 15.5928C49.8754 15.0242 49.9968 14.4148 49.9968 13.7993L46.8726 13.7985C46.8724 14.0037 46.832 14.2069 46.7534 14.3964L49.6398 15.5928ZM49.9968 13.7993C49.997 13.1838 49.876 12.5743 49.6406 12.0056L46.7538 13.2006C46.8322 13.3902 46.8726 13.5934 46.8726 13.7985L49.9968 13.7993ZM49.6406 12.0056C49.4052 11.4369 49.06 10.9202 48.625 10.4849L46.4152 12.6936C46.5602 12.8387 46.6752 13.011 46.7538 13.2006L49.6406 12.0056ZM48.625 10.4849L39.518 1.38002L37.309 3.58954L46.4152 12.6936L48.625 10.4849ZM39.518 1.38002C38.6392 0.501421 37.4472 0.0078125 36.2046 0.0078125V3.1322C36.6188 3.1322 37.016 3.29668 37.309 3.58954L39.518 1.38002ZM36.2046 0.0078125C34.9618 0.0078125 33.77 0.501381 32.8912 1.37998L35.1004 3.58924C35.3934 3.29638 35.7904 3.1322 36.2046 3.1322V0.0078125Z" fill="#46B4DE"/>
<path d="M25.1557 2.48114L26.2601 3.58614L26.2623 3.58386L25.1557 2.48114ZM29.5819 2.48114L28.4753 3.58386L28.4773 3.58572L29.5819 2.48114ZM24.0515 1.37615C23.6159 1.81138 23.2705 2.32816 23.0347 2.89696L25.9211 4.09306C25.9997 3.90346 26.1149 3.7312 26.2601 3.58614L24.0515 1.37615ZM23.0347 2.89696C22.7991 3.46576 22.6777 4.07542 22.6777 4.69112H25.8021C25.8021 4.48588 25.8425 4.28266 25.9211 4.09306L23.0347 2.89696ZM22.6777 4.69112C22.6777 5.30682 22.7991 5.9165 23.0347 6.4853L25.9211 5.28918C25.8425 5.09958 25.8021 4.89636 25.8021 4.69112H22.6777ZM23.0347 6.4853C23.2705 7.05408 23.6159 7.57086 24.0515 8.0061L26.2603 5.79646C26.1151 5.65138 25.9997 5.47878 25.9211 5.28918L23.0347 6.4853ZM24.0515 8.0061L41.9955 25.9502L44.2047 23.7408L26.2603 5.79646L24.0515 8.0061ZM41.9955 25.9502C42.4313 26.3852 42.9495 26.731 43.5187 26.9662L44.7117 24.0786C44.5217 24 44.3501 23.886 44.2047 23.7408L41.9955 25.9502ZM43.5187 26.9662C44.0879 27.2012 44.6977 27.322 45.3135 27.3214L45.3105 24.197C45.1051 24.1972 44.9015 24.157 44.7117 24.0786L43.5187 26.9662ZM45.3135 27.3214C45.9293 27.3208 46.5389 27.199 47.1075 26.9628L45.9091 24.0774C45.7195 24.1562 45.5161 24.1968 45.3105 24.197L45.3135 27.3214ZM47.1075 26.9628C47.6763 26.7266 48.1929 26.3808 48.6279 25.945L46.4165 23.7378C46.2713 23.8832 46.0989 23.9986 45.9091 24.0774L47.1075 26.9628ZM48.6279 25.945C49.0629 25.509 49.4077 24.9918 49.6429 24.4228L46.7551 23.2298C46.6767 23.4196 46.5617 23.5922 46.4165 23.7378L48.6279 25.945ZM49.6429 24.4228C49.8779 23.8536 49.9987 23.2438 49.9981 22.628L46.8737 22.631C46.8739 22.8364 46.8337 23.0398 46.7551 23.2298L49.6429 24.4228ZM49.9981 22.628C49.9975 22.0122 49.8757 21.4026 49.6395 20.8338L46.7541 22.0322C46.8329 22.222 46.8735 22.4254 46.8737 22.631L49.9981 22.628ZM49.6395 20.8338C49.4033 20.2652 49.0575 19.7486 48.6215 19.3136L46.4133 21.5238C46.5587 21.669 46.6753 21.8424 46.7541 22.0322L49.6395 20.8338ZM48.6215 19.3136L30.6867 1.37657L28.4773 3.58572L46.4133 21.5238L48.6215 19.3136ZM30.6885 1.37842C30.2531 0.94151 29.7357 0.594844 29.1661 0.358302L27.9679 3.24382C28.1579 3.32266 28.3303 3.43822 28.4753 3.58386L30.6885 1.37842ZM29.1661 0.358302C28.5965 0.121762 27.9857 0 27.3689 0V3.12438C27.5745 3.12438 27.7781 3.16498 27.9679 3.24382L29.1661 0.358302ZM27.3689 0C26.7521 0 26.1413 0.121762 25.5717 0.358302L26.7697 3.24382C26.9597 3.16498 27.1633 3.12438 27.3689 3.12438V0ZM25.5717 0.358302C25.0019 0.594844 24.4845 0.94151 24.0491 1.37842L26.2623 3.58386C26.4075 3.43822 26.5799 3.32266 26.7697 3.24382L25.5717 0.358302Z" fill="#46B4DE"/>
<path d="M16.0073 43.1019L17.1311 42.0165L17.1119 41.9973L16.0073 43.1019ZM11.5894 47.5197L10.4847 48.6247L10.5041 48.6435L11.5894 47.5197ZM3.58764 35.1019C3.73272 34.9567 3.90516 34.8415 4.09476 34.7629L2.89864 31.8765C2.32984 32.1121 1.81306 32.4577 1.37784 32.8931L3.58764 35.1019ZM4.09476 34.7629C4.28436 34.6843 4.48758 34.6439 4.69282 34.6439V31.5195C4.07712 31.5195 3.46744 31.6407 2.89864 31.8765L4.09476 34.7629ZM4.69282 34.6439C4.89806 34.6439 5.10128 34.6843 5.29086 34.7629L6.48698 31.8765C5.91818 31.6407 5.30852 31.5195 4.69282 31.5195V34.6439ZM5.29086 34.7629C5.48046 34.8415 5.65272 34.9565 5.7978 35.1017L8.00778 32.8931C7.57256 32.4577 7.05578 32.1121 6.48698 31.8765L5.29086 34.7629ZM5.7978 35.1017L14.9026 44.2065L17.1119 41.9973L8.00778 32.8931L5.7978 35.1017ZM14.8836 44.1871C15.1681 44.4819 15.3256 44.8765 15.322 45.2861L18.4463 45.3131C18.457 44.0843 17.9848 42.9003 17.1311 42.0165L14.8836 44.1871ZM15.322 45.2861C15.3185 45.6957 15.1542 46.0875 14.8646 46.3771L17.0738 48.5863C17.9428 47.7175 18.4356 46.5419 18.4463 45.3131L15.322 45.2861ZM14.8646 46.3771C14.5749 46.6667 14.1831 46.8311 13.7735 46.8345L13.8006 49.9589C15.0294 49.9481 16.2049 49.4553 17.0738 48.5863L14.8646 46.3771ZM13.7735 46.8345C13.3639 46.8381 12.9693 46.6807 12.6746 46.3961L10.5041 48.6435C11.388 49.4971 12.5718 49.9695 13.8006 49.9589L13.7735 46.8345ZM12.6939 46.4151L3.58734 37.3105L1.37803 39.5199L10.4847 48.6247L12.6939 46.4151ZM3.58734 37.3105C3.29446 37.0175 3.13024 36.6207 3.13024 36.2063H0.00585938C0.00585938 37.4491 0.499429 38.6409 1.37803 39.5199L3.58734 37.3105ZM3.13024 36.2063C3.13024 35.7921 3.29476 35.3949 3.58764 35.1019L1.37784 32.8931C0.499241 33.7721 0.00585938 34.9637 0.00585938 36.2063H3.13024Z" fill="#46B4DE"/>
<path d="M2.48218 25.1567L3.58438 26.2639L3.58666 26.2615L2.48218 25.1567ZM2.48218 29.5851L3.58682 28.4803L3.58438 28.4779L2.48218 29.5851ZM3.58666 26.2615C3.87962 25.9687 4.2769 25.8041 4.69112 25.8041V22.6797C3.44842 22.6797 2.25658 23.1733 1.37772 24.0519L3.58666 26.2615ZM4.69112 25.8041C5.10536 25.8041 5.50264 25.9687 5.7956 26.2615L8.0047 24.0521C7.12584 23.1735 5.93384 22.6797 4.69112 22.6797V25.8041ZM5.7956 26.2615L23.7398 44.2057L25.9498 41.9973L8.0047 24.0521L5.7956 26.2615ZM23.7398 44.2057C24.0332 44.4995 24.197 44.8971 24.1968 45.3123L27.3212 45.3145C27.322 44.0707 26.8288 42.8773 25.9498 41.9973L23.7398 44.2057ZM24.1968 45.3123C24.1964 45.7273 24.0312 46.1255 23.7374 46.4187L25.9452 48.6297C26.8254 47.7507 27.3202 46.5583 27.3212 45.3145L24.1968 45.3123ZM23.7374 46.4187C23.4436 46.7121 23.0454 46.8767 22.6302 46.8765L22.628 50.0009C23.8718 50.0017 25.065 49.5085 25.9452 48.6297L23.7374 46.4187ZM22.6302 46.8765C22.215 46.8763 21.817 46.7111 21.5236 46.4173L19.3128 48.6249C20.1918 49.5051 21.3842 50.0001 22.628 50.0009L22.6302 46.8765ZM21.5236 46.4173L3.58682 28.4803L1.37755 30.6897L19.3128 48.6249L21.5236 46.4173ZM3.58438 28.4779C3.43858 28.3329 3.3229 28.1603 3.24396 27.9703L0.358728 29.1691C0.595546 29.7391 0.94261 30.2567 1.37999 30.6921L3.58438 28.4779ZM3.24396 27.9703C3.16502 27.7803 3.12438 27.5767 3.12438 27.3709H0C0 27.9881 0.121909 28.5991 0.358728 29.1691L3.24396 27.9703ZM3.12438 27.3709C3.12438 27.1651 3.16502 26.9615 3.24396 26.7715L0.358728 25.5727C0.121909 26.1425 0 26.7537 0 27.3709H3.12438ZM3.24396 26.7715C3.3229 26.5815 3.43858 26.4089 3.58438 26.2639L1.37999 24.0497C0.94261 24.4851 0.595546 25.0027 0.358728 25.5727L3.24396 26.7715Z" fill="#46B4DE"/>
<path d="M13.6628 31.9196L12.5581 30.815C12.2652 31.108 12.1006 31.5054 12.1006 31.9196C12.1006 32.334 12.2652 32.7314 12.5581 33.0244L13.6628 31.9196ZM31.9187 13.6638L33.0233 12.5591C32.7305 12.2661 32.3331 12.1016 31.9187 12.1016C31.5045 12.1016 31.1071 12.2661 30.8141 12.5591L31.9187 13.6638ZM36.3373 18.0823L37.4419 19.1869C38.0519 18.5769 38.0519 17.5877 37.4419 16.9777L36.3373 18.0823ZM18.0813 36.3382L16.9767 37.4428C17.2697 37.7358 17.667 37.9004 18.0813 37.9004C18.4956 37.9004 18.893 37.7358 19.186 37.4428L18.0813 36.3382ZM14.7674 33.0244L33.0233 14.7684L30.8141 12.5591L12.5581 30.815L14.7674 33.0244ZM30.8141 14.7684L35.2327 19.1869L37.4419 16.9777L33.0233 12.5591L30.8141 14.7684ZM35.2327 16.9777L16.9767 35.2336L19.186 37.4428L37.4419 19.1869L35.2327 16.9777ZM19.186 35.2336L14.7674 30.815L12.5581 33.0244L16.9767 37.4428L19.186 35.2336Z" fill="#46B4DE"/>
</svg>
