<svg width="45" height="38" viewBox="0 0 45 38" fill="none" xmlns="http://www.w3.org/2000/svg">
<path d="M31.7774 2C25.4375 2 22.3125 8.25 22.3125 8.25C22.3125 8.25 19.1875 2 12.8477 2C7.69533 2 3.61526 6.31055 3.56252 11.4541C3.4551 22.1309 12.0322 29.7236 21.4336 36.1045C21.6928 36.2808 21.999 36.3751 22.3125 36.3751C22.626 36.3751 22.9322 36.2808 23.1914 36.1045C32.5918 29.7236 41.169 22.1309 41.0625 11.4541C41.0098 6.31055 36.9297 2 31.7774 2Z" stroke="#46B4DE" stroke-width="3" stroke-linecap="round" stroke-linejoin="round"/>
<path d="M2 19.1875H12.9375L17.625 9.8125L22.3125 25.4375L27 16.0625L30.125 22.3125H42.625" stroke="#46B4DE" stroke-width="3" stroke-linecap="round" stroke-linejoin="round"/>
</svg>
