<svg width="50" height="49" viewBox="0 0 50 49" fill="none" xmlns="http://www.w3.org/2000/svg">
<path d="M6.85404 14C7.21519 10.3117 9.03274 7.13053 11.3766 6.08398C11.9243 5.83963 12.5662 6.08535 12.8106 6.6328C13.055 7.18036 12.8093 7.82244 12.2618 8.06691C10.8873 8.68053 9.33081 10.9883 9.01514 14.2117C8.96028 14.7725 8.48781 15.1917 7.9359 15.1917C7.90047 15.1917 7.86481 15.1899 7.82881 15.1865C7.23199 15.128 6.79563 14.5968 6.85404 14ZM8.93731 36.2774C8.93731 36.877 8.45123 37.3631 7.85156 37.3631H3.37746C3.05036 37.3631 2.74075 37.2157 2.53457 36.9616C2.32839 36.7077 2.24771 36.3743 2.31491 36.0543C2.83207 33.5911 3.90102 31.5061 5.43639 29.9415C2.72544 27.971 0.825143 24.8682 0.0231725 21.0499C-0.0440298 20.7296 0.0366587 20.3962 0.242837 20.1424C0.449016 19.8883 0.758626 19.7409 1.08572 19.7409H1.79066C1.59168 18.2531 1.57385 16.6567 1.73832 14.9775C2.38371 8.38532 5.56645 2.72627 9.6603 0.88689C11.3429 0.0706333 13.3472 0.0706334 15.0296 0.887004C19.1236 2.72638 22.306 8.38532 22.9514 14.9775C23.1159 16.6567 23.0979 18.2531 22.8989 19.7409H23.6042C23.9313 19.7409 24.241 19.8885 24.4472 20.1424C24.6534 20.3965 24.7341 20.7299 24.6668 21.05C24.4215 22.217 24.0721 23.3283 23.6282 24.3531C23.3899 24.9033 22.7506 25.1558 22.2004 24.9179C21.6501 24.6795 21.3973 24.0403 21.6356 23.4901C21.8529 22.9879 22.0447 22.4604 22.2092 21.9123H21.6317C21.6167 21.9125 21.602 21.9125 21.587 21.9123H3.10248C3.08762 21.9125 3.07265 21.9125 3.05779 21.9123H2.48154C3.42569 25.0454 5.26895 27.4807 7.7607 28.8497C8.08368 29.0272 8.29466 29.3564 8.32083 29.7241C8.347 30.0918 8.18494 30.4476 7.8903 30.6692C6.47242 31.735 5.41513 33.2824 4.78928 35.1915H7.85167C8.45123 35.1916 8.93731 35.6777 8.93731 36.2774ZM3.98422 19.7409H20.7051C20.9203 18.3398 20.9491 16.8129 20.7902 15.1892C20.2264 9.43073 17.4865 4.36175 14.1272 2.86227C14.1155 2.85713 14.1041 2.85176 14.0927 2.84616C13.0146 2.31882 11.675 2.31871 10.5968 2.84616C10.5854 2.85176 10.5739 2.85713 10.5624 2.86227C7.20319 4.36164 4.46321 9.43073 3.89942 15.1892C3.74044 16.8129 3.76913 18.3397 3.98422 19.7409ZM49.6969 17.3326C49.9712 17.627 50.0602 18.049 49.9281 18.4291C48.6021 22.2467 45.1145 25.1802 40.8262 26.0849C39.9145 26.2771 38.9989 26.371 38.0956 26.371C34.9505 26.371 31.9557 25.2345 29.8061 23.1635L27.9351 25.2017C27.5297 25.6434 26.8431 25.6729 26.401 25.2673C25.9594 24.8618 25.9299 24.1749 26.3355 23.7332L28.2856 21.6087C26.9551 16.2686 28.5975 10.2981 32.6505 5.8826C36.8563 1.30108 42.9517 -0.837969 48.5582 0.301613C48.9525 0.381615 49.2701 0.673283 49.3837 1.05935C50.7525 5.71471 49.8021 10.9215 46.9161 15.1908C47.9661 15.7635 48.9119 16.4903 49.6969 17.3326ZM43.5822 15.9171C43.8673 15.6065 44.1387 15.2875 44.3967 14.9607C44.4071 14.9468 44.4178 14.9332 44.4288 14.9199C47.3384 11.2094 48.4765 6.53223 47.4713 2.31448C42.7891 1.61377 37.7791 3.50698 34.2502 7.35123C31.0599 10.8268 29.5621 15.3726 30.1153 19.6158L32.9355 16.5437L32.2854 13.5797C32.157 12.9939 32.5276 12.4151 33.1133 12.2866C33.6994 12.1578 34.2779 12.5288 34.4064 13.1145L34.7299 14.5888L37.892 11.144L37.2419 8.18028C37.1135 7.59455 37.4841 7.01556 38.0699 6.8871C38.6557 6.75863 39.2345 7.12928 39.3629 7.71501L39.6864 9.18935L41.8256 6.85887C42.231 6.41748 42.9178 6.38765 43.3596 6.79338C43.8014 7.19888 43.8308 7.88576 43.4252 8.32749L41.286 10.6579L42.7828 10.8543C43.3773 10.9323 43.7961 11.4774 43.7182 12.072C43.6402 12.6665 43.0954 13.0863 42.5005 13.0073L39.4917 12.6127L36.3296 16.0575L37.8263 16.2538C38.4208 16.3318 38.8396 16.8769 38.7616 17.4715C38.6837 18.066 38.1391 18.4858 37.544 18.4068L34.5352 18.0123L31.7151 21.0844C35.9949 21.275 40.3915 19.393 43.5822 15.9171ZM47.6314 18.3418C47.0294 17.793 46.3345 17.3191 45.5774 16.9408C45.4482 17.0908 45.3164 17.239 45.1818 17.3856C42.0544 20.7925 37.881 22.8484 33.6418 23.2104C35.632 24.1689 38.0159 24.4587 40.3779 23.9601C43.6838 23.2627 46.404 21.1384 47.6314 18.3418ZM42.2148 35.9338C42.7778 37.3487 42.7305 39.0133 42.0877 40.3941C39.9835 45.2242 28.4558 48.2283 24.4228 48.5553C23.9044 48.5973 23.3941 48.6182 22.895 48.6182C18.042 48.6185 14.1402 46.6513 12.05 43.0968C9.94591 39.5186 10.0755 34.9759 12.3801 31.5236C14.9051 27.7412 19.5208 26.0112 25.044 26.7791C29.0517 27.3358 40.3894 30.9917 42.2148 35.9338ZM40.1935 36.7274C40.1891 36.7167 40.185 36.7059 40.1811 36.695C39.6258 35.1732 37.2473 33.3646 33.6556 31.7333C30.2441 30.1837 26.6455 29.1939 24.7455 28.9303C23.9271 28.8165 23.1645 28.7648 22.4549 28.7648C17.6253 28.7648 15.2339 31.1604 14.1864 32.7295C12.3411 35.4939 12.2373 39.1313 13.922 41.9962C15.019 43.8616 17.8197 46.9132 24.2473 46.3911C26.1593 46.2361 29.8087 45.4531 33.3029 44.1005C36.9817 42.6764 39.4594 41.0065 40.1005 39.5188C40.1052 39.5081 40.1099 39.4976 40.1148 39.4871C40.5094 38.6465 40.5395 37.5891 40.1935 36.7274ZM31.0257 36.3659C31.4464 37.3065 31.4149 38.4098 30.9414 39.3251C29.9522 41.3578 27.1228 42.8721 23.8926 43.0955C23.63 43.1137 23.3716 43.1226 23.1186 43.1226C20.3662 43.1227 18.1877 42.0597 17.0721 40.1454C16.0865 38.4539 16.1454 36.3891 17.2258 34.7566C18.5612 32.7391 21.1048 31.8078 24.2032 32.2002C27.4152 32.6074 30.1536 34.2804 31.0257 36.3659ZM29.0407 37.2464C29.0355 37.2349 29.0305 37.2233 29.0257 37.2117C28.547 36.0521 26.6431 34.6985 23.9302 34.3544C23.556 34.307 23.1944 34.2836 22.8482 34.2836C21.1137 34.2836 19.7552 34.8695 19.0367 35.9551C18.4158 36.8933 18.382 38.0801 18.9484 39.0521C19.7346 40.4014 21.4814 41.086 23.7427 40.9292C26.4711 40.7405 28.4489 39.4975 28.9926 38.3671C28.9982 38.3557 29.0039 38.3445 29.0097 38.3332C29.1831 38.0026 29.195 37.5861 29.0407 37.2464Z" fill="#46B4DE"/>
</svg>
