<svg width="58" height="48" viewBox="0 0 58 48" fill="none" xmlns="http://www.w3.org/2000/svg">
<path d="M21.1524 44.903H8.27748V44.1287C8.27748 42.4208 6.62772 41.032 4.59893 41.032H3.6792V20.1289H25.7505V41.0321H24.8307C22.8019 41.0321 21.1522 42.421 21.1522 44.1289L21.1524 44.903Z" fill="#46B4DE"/>
<path d="M35.8657 21.6773C37.3868 21.6773 38.6245 20.6353 38.6245 19.3547V2.32266C38.6247 1.042 37.3868 0 35.8657 0H2.75901C1.23795 0 0 1.042 0 2.32266V19.3549V48H29.4284V21.6773H35.8657ZM36.7855 7.74191H1.83927V5.41942H36.7855V7.74191ZM2.75901 1.54838H35.8659C36.3735 1.54838 36.7855 1.89605 36.7855 2.32266V3.87104H1.83927V2.32266C1.83927 1.89605 2.25127 1.54838 2.75901 1.54838ZM1.83927 9.29029H36.7855V19.3549C36.7855 19.7815 36.3735 20.1291 35.8659 20.1291H2.75901C2.25147 20.1291 1.83947 19.7815 1.83947 19.3549L1.83927 9.29029ZM21.1517 26.3225C21.1517 29.3109 18.2633 31.7419 14.7144 31.7419C11.1655 31.7419 8.27703 29.3109 8.27703 26.3225C8.27703 24.4141 9.48084 22.6551 11.4221 21.6773H18.0066C19.9479 22.6551 21.1517 24.4141 21.1517 26.3225ZM27.5891 46.4515H1.83927V21.5348C2.12806 21.6215 2.4351 21.6773 2.75881 21.6773H8.57268C7.2282 22.9377 6.43736 24.5791 6.43736 26.3225C6.43736 30.164 10.1498 33.2903 14.714 33.2903C19.2781 33.2903 22.9906 30.1641 22.9906 26.3225C22.9906 24.5791 22.1998 22.9377 20.8553 21.6773H27.5889L27.5891 46.4515Z" fill="#6B6F81"/>
<path d="M27.5887 18.5802C28.2389 18.5802 28.8706 18.427 29.4307 18.1505C29.9734 18.4167 30.5949 18.5802 31.2672 18.5802C33.296 18.5802 34.9458 17.1914 34.9458 15.4835C34.9458 13.7756 33.296 12.3867 31.2672 12.3867C30.5949 12.3867 29.9734 12.5501 29.4307 12.8165C28.8716 12.5402 28.2389 12.3867 27.5887 12.3867C25.5599 12.3867 23.9102 13.7756 23.9102 15.4835C23.9102 17.1914 25.5599 18.5802 27.5887 18.5802ZM33.1065 15.4835C33.1065 16.3374 32.2815 17.0319 31.2672 17.0319C30.2529 17.0319 29.428 16.3374 29.428 15.4835C29.428 14.6296 30.2529 13.9351 31.2672 13.9351C32.2815 13.9351 33.1065 14.6296 33.1065 15.4835ZM27.5887 13.9351C27.7496 13.9351 27.9069 13.9599 28.0613 13.9962C27.7688 14.439 27.5887 14.9414 27.5887 15.4835C27.5887 16.0255 27.769 16.5278 28.0613 16.9708C27.9069 17.0071 27.7496 17.0319 27.5887 17.0319C26.5744 17.0319 25.7494 16.3374 25.7494 15.4835C25.7494 14.6296 26.5744 13.9351 27.5887 13.9351Z" fill="#6B6F81"/>
<path d="M44.1401 26.3223C37.0406 26.3223 31.2651 31.1843 31.2651 37.1609C31.2651 43.1376 37.0404 47.9996 44.1401 47.9996C51.2397 47.9996 57.015 43.1376 57.015 37.1609C57.015 31.1843 51.2396 26.3223 44.1401 26.3223ZM44.1401 46.4512C38.0549 46.4512 33.1044 42.2837 33.1044 37.1609C33.1044 32.0381 38.0549 27.8706 44.1401 27.8706C50.2253 27.8706 55.1757 32.0381 55.1757 37.1609C55.1757 42.2837 50.2253 46.4512 44.1401 46.4512Z" fill="#6B6F81"/>
<path d="M45.5219 30.9673H45.0621V29.4189H43.2228V30.9673H42.7629C40.4812 30.9673 38.6245 32.5304 38.6245 34.4512C38.6245 36.372 40.4812 37.9351 42.7629 37.9351H45.5217C46.7899 37.9351 47.8209 38.8037 47.8209 39.8706C47.8209 40.9376 46.7899 41.8062 45.5217 41.8062H42.7629C41.4948 41.8062 40.4638 40.9376 40.4638 39.8706V39.4835H38.6245V39.8706C38.6245 41.7915 40.4812 43.3545 42.7629 43.3545H43.2228V44.9029H45.0621V43.3544H45.5219C47.8036 43.3544 49.6603 41.7913 49.6603 39.8705C49.6603 37.9497 47.8036 36.3866 45.5219 36.3866H42.7631C41.4949 36.3866 40.464 35.518 40.464 34.4511C40.464 33.3841 41.4949 32.5155 42.7631 32.5155H45.5219C46.7901 32.5155 47.8211 33.3841 47.8211 34.4511V34.8382H49.6603V34.4511C49.6603 32.5304 47.8034 30.9673 45.5219 30.9673Z" fill="#6B6F81"/>
<path d="M43.2224 3.87103V20.129H45.0617V3.87103L46.1653 5.10974L47.6367 4.18071L44.1422 0.257812L40.6475 4.18071L42.1189 5.10974L43.2224 3.87103Z" fill="#6B6F81"/>
<path d="M45.0619 21.6777H43.2227V24.0004H45.0619V21.6777Z" fill="#6B6F81"/>
<path d="M52.4192 8.51654V22.452H54.2585V8.51654L55.3621 9.75525L56.8335 8.82622L53.3388 4.90332L49.8442 8.82622L51.3157 9.75525L52.4192 8.51654Z" fill="#6B6F81"/>
<path d="M54.2587 24H52.4194V26.3227H54.2587V24Z" fill="#6B6F81"/>
</svg>
