<svg width="50" height="39" viewBox="0 0 50 39" fill="none" xmlns="http://www.w3.org/2000/svg">
<path d="M44.2978 4.83574C42.862 3.06904 40.6212 1.8707 37.6353 1.27412C35.8762 0.924902 34.2795 2.00908 33.7587 3.9166C33.262 5.73574 33.9445 7.9916 36.2112 8.78496C37.3246 9.16914 38.3204 8.79326 39.0179 8.4958C39.1787 9.11992 39.377 9.99834 39.5712 10.8566C39.7596 11.6916 39.9512 12.5425 40.1445 13.3217C38.5787 12.7184 36.2686 12.1184 34.2304 13.7C33.9054 13.9517 33.6245 14.1884 33.3687 14.4042C32.2679 15.3317 32.0379 15.5259 30.3338 15.0467C30.0521 14.9675 29.8013 14.8425 29.5354 14.7358C31.2338 12.9325 32.4996 10.4259 32.4996 8.125C32.4996 3.64502 29.1354 0 24.9996 0C20.8638 0 17.4996 3.64502 17.4996 8.125C17.4996 10.4259 18.7654 12.9325 20.4638 14.735C20.1979 14.8416 19.9471 14.9666 19.6646 15.0466C17.963 15.5299 17.7313 15.3332 16.6313 14.4041C16.3747 14.1883 16.0938 13.9516 15.7697 13.6982C13.7289 12.1199 11.423 12.7183 9.85633 13.3207C10.043 12.5698 10.2372 11.7082 10.428 10.8632C10.6205 10.0023 10.8197 9.12148 10.9822 8.49482C11.6789 8.79228 12.678 9.1665 13.7889 8.78399C16.0555 7.99151 16.738 5.73564 16.2414 3.91563C15.7222 2.00977 14.1306 0.927246 12.3631 1.27314C9.37723 1.86982 7.13641 3.06895 5.70057 4.83652C4.44471 6.3832 -0.452751 16.6932 0.0338704 18.9124C0.432991 20.7324 2.24305 21.744 6.62059 24.1883L7.41561 24.6324C8.52059 25.2499 9.72977 25.3249 10.7981 25.3907C12.5073 25.4957 13.1406 25.6199 13.5298 26.6041C15.2347 30.9208 16.4731 37.2574 16.4847 37.3208C16.5998 37.9183 17.1231 38.3333 17.7106 38.3333C17.7889 38.3333 17.8689 38.3258 17.9498 38.31C18.6273 38.1791 19.0706 37.5241 18.9389 36.8449C18.8873 36.5774 17.6465 30.2199 15.854 25.685C14.8457 23.135 12.5948 22.9966 10.9514 22.8958C10.0722 22.8408 9.24149 22.7899 8.63475 22.45L7.83895 22.0059C4.81649 20.3192 2.63397 19.0992 2.48641 18.45C2.43807 17.0733 6.29227 8.07334 7.64139 6.41338C8.69969 5.11006 10.4539 4.20674 12.8539 3.725C13.5006 3.5917 13.7839 4.41084 13.8289 4.57588C13.8689 4.7209 14.1789 5.99922 12.9647 6.42422C12.7039 6.51592 12.2456 6.31924 11.8406 6.14336C11.2606 5.8917 10.5439 5.57588 9.78729 5.90674C9.47811 6.04004 9.06063 6.33262 8.83065 6.96836C8.59901 7.60332 8.31649 8.85918 7.98983 10.3158C7.68729 11.6575 7.34569 13.1783 7.08563 13.9608C6.97313 14.2992 6.63143 15.3292 7.38475 16.0267C8.15477 16.7392 9.08055 16.3517 10.0589 15.9375C11.6639 15.265 13.0813 14.7792 14.2397 15.675C14.5339 15.9033 14.7864 16.1184 15.0189 16.3133C16.4731 17.5416 17.5064 18.2508 20.3439 17.4533C21.1989 17.2133 21.9564 16.8616 22.6581 16.485C23.4364 16.9125 24.2331 17.1875 25.0014 17.1875C25.7698 17.1875 26.5665 16.9125 27.3448 16.485C28.0465 16.8616 28.804 17.2133 29.6582 17.4533C32.4999 18.2508 33.5315 17.5408 34.984 16.3133C35.2156 16.1183 35.4689 15.9033 35.7632 15.6758C36.9207 14.7774 38.339 15.2642 39.9431 15.9366C40.9207 16.3508 41.8473 16.7383 42.6173 16.0258C43.3715 15.3291 43.0298 14.2999 42.9173 13.9616C42.6573 13.1767 42.3139 11.6524 42.0114 10.3066C41.6839 8.85498 41.4022 7.60166 41.173 6.96826C40.9414 6.33242 40.5239 6.04072 40.2147 5.90654C39.4589 5.58154 38.7397 5.8915 38.1605 6.14326C37.758 6.31738 37.3022 6.5166 37.0388 6.42412C35.8222 5.99912 36.133 4.71992 36.1721 4.57578C36.2172 4.41074 36.4696 3.59658 37.1488 3.7249C39.5472 4.20488 41.3014 5.10908 42.3613 6.41152C43.7088 8.07324 47.5639 17.0731 47.5271 18.3782C47.3688 19.0999 45.1838 20.319 42.1597 22.0074L41.3663 22.4508C40.7597 22.7899 39.9297 22.8416 39.0505 22.8966C37.4071 22.9982 35.1563 23.1357 34.1479 25.6857C32.3546 30.2207 31.113 36.5782 31.0621 36.8457C30.9305 37.524 31.3737 38.1799 32.0513 38.3107C32.1288 38.3258 32.2096 38.3332 32.2879 38.3332C32.8754 38.3332 33.3987 37.9182 33.5138 37.3216C33.5263 37.2582 34.7638 30.9216 36.4704 26.6065C36.8596 25.6216 37.4937 25.4966 39.202 25.3915C40.2687 25.3257 41.4796 25.2515 42.5846 24.6332L43.3754 24.1915C47.7554 21.7465 49.5671 20.7349 49.9662 18.9132C50.4512 16.6925 45.5545 6.38242 44.2978 4.83574ZM24.9995 14.6875C23.3328 14.6875 19.9995 11.2316 19.9995 8.125C19.9995 5.01836 22.2379 2.5 24.9995 2.5C27.7611 2.5 29.9995 5.01836 29.9995 8.125C29.9995 11.2316 26.6662 14.6875 24.9995 14.6875Z" fill="#46B4DE"/>
</svg>
