<svg width="30" height="30" viewBox="0 0 30 30" fill="none" xmlns="http://www.w3.org/2000/svg">
<g clip-path="url(#clip0_7657_54173)">
<path d="M15 13.752C17.7614 13.752 20 11.5134 20 8.75195C20 5.99053 17.7614 3.75195 15 3.75195C12.2386 3.75195 10 5.99053 10 8.75195C10 11.5134 12.2386 13.752 15 13.752Z" stroke="white" stroke-width="2" stroke-linecap="round" stroke-linejoin="round"/>
<path d="M7.5 26.252V23.752C7.5 22.4259 8.02678 21.1541 8.96447 20.2164C9.90215 19.2787 11.1739 18.752 12.5 18.752H17.5C18.8261 18.752 20.0979 19.2787 21.0355 20.2164C21.9732 21.1541 22.5 22.4259 22.5 23.752V26.252" stroke="white" stroke-width="2" stroke-linecap="round" stroke-linejoin="round"/>
</g>
<defs>
<clipPath id="clip0_7657_54173">
<rect width="30" height="30" fill="white" transform="translate(0 0.00195312)"/>
</clipPath>
</defs>
</svg>
