<svg width="17" height="17" viewBox="0 0 17 19" fill="none" xmlns="http://www.w3.org/2000/svg">
<path d="M4.72222 15.3255C2.42046 14.2578 0.944436 11.988 0.944436 9.48691V6.71799C0.944436 3.15547 3.91017 0.257202 7.55556 0.257202H6.61113C2.9657 0.257202 0 3.15547 0 6.71802V9.48695C0 11.9881 1.47603 14.2578 3.77778 15.3255V18.409C3.77778 18.6768 4.12051 18.8167 4.3152 18.6266L4.72222 18.2288V15.3255Z" fill="#893CA9"/>
<path fill-rule="evenodd" clip-rule="evenodd" d="M6.61113 0.257202H10.3889C14.0343 0.257202 17 3.15547 17 6.71802V9.48695C17 13.0495 14.0343 15.9478 10.3889 15.9478H7.05629L4.3152 18.6266C4.12051 18.8167 3.77778 18.6768 3.77778 18.409V15.3255C1.47603 14.2578 0 11.9881 0 9.48695V6.71802C0 3.15547 2.9657 0.257202 6.61113 0.257202ZM12.9711 10.2252L13.2541 11.7236C13.2619 11.7647 13.261 11.8069 13.2517 11.8477C13.1917 12.1056 13.0842 12.3488 12.9351 12.5664C12.5798 12.7919 12.1472 12.9069 11.654 12.9069C11.4788 12.9069 11.2962 12.8925 11.1066 12.8633C9.60127 12.6318 7.50646 11.9111 6.14143 10.5823L6.12283 10.5643C4.76223 9.22932 4.02477 7.18217 3.78799 5.71115C3.67404 5.0034 3.77939 4.39363 4.09253 3.92308C3.97261 4.00127 3.86007 4.09096 3.75697 4.19172C3.43003 4.51122 3.2328 4.92494 3.17086 5.4121C3.23252 4.92411 3.42984 4.50972 3.75721 4.18979C4.05124 3.90237 4.42064 3.70302 4.82548 3.61315C4.86716 3.60389 4.91039 3.60309 4.95237 3.61063L6.48565 3.8872C6.61232 3.91005 6.71195 4.00601 6.73722 4.12941L7.18242 6.3049C7.20304 6.40576 7.17073 6.51009 7.09632 6.58284L6.19486 7.46377C6.93896 9.0168 7.78465 9.84506 9.30841 10.5123L10.2128 9.62844C10.2873 9.55573 10.3938 9.52419 10.4972 9.5443L12.7233 9.97938C12.8496 10.0041 12.9477 10.1014 12.9711 10.2252ZM3.19432 6.29132C3.14384 5.97784 3.13634 5.68357 3.17086 5.4121C3.13662 5.68303 3.1442 5.97666 3.19456 6.2894C3.43134 7.76042 4.1688 9.80757 5.52941 11.1426L5.548 11.1606C6.91299 12.4893 9.00781 13.2101 10.5131 13.4415C10.7028 13.4707 10.8854 13.4852 11.0605 13.4852C11.7133 13.4852 12.2601 13.284 12.6616 12.8916C12.764 12.7916 12.8554 12.6826 12.9351 12.5664L12.9363 12.5657C12.8562 12.6829 12.7645 12.7928 12.6614 12.8936C12.2599 13.2859 11.713 13.4871 11.0603 13.4871C10.8852 13.4871 10.7025 13.4727 10.5129 13.4435C9.00757 13.212 6.91275 12.4913 5.54776 11.1625L5.52916 11.1445C4.16856 9.80949 3.4311 7.76234 3.19432 6.29132ZM6.79166 6.88391L7.09928 6.58325L6.79163 6.88388L6.79166 6.88391ZM9.91064 9.93321L10.2209 9.63L10.221 9.63005L9.9107 9.93326L9.91064 9.93321ZM8.8219 5.79621C8.8219 5.62631 8.96285 5.48856 9.1367 5.48856C10.1783 5.48856 11.0256 6.31661 11.0256 7.33449C11.0256 7.50212 10.8823 7.64214 10.7108 7.64214C10.5392 7.64214 10.396 7.50212 10.396 7.33449C10.396 6.6559 9.83107 6.10385 9.1367 6.10385C8.96285 6.10385 8.8219 5.96611 8.8219 5.79621ZM9.13823 4.25971C9.02177 4.25971 8.90425 4.26602 8.78886 4.27846C8.61604 4.2971 8.4914 4.44912 8.51047 4.61804C8.52954 4.78697 8.68543 4.90845 8.85796 4.8901C8.95047 4.88012 9.04475 4.87503 9.13823 4.87503C10.5269 4.87503 11.6567 5.97914 11.6567 7.33628C11.6567 7.42767 11.6515 7.51981 11.6413 7.61022C11.6225 7.7768 11.7492 7.93145 11.9197 7.9498C12.0902 7.96815 12.2483 7.84439 12.2672 7.67774C12.2799 7.56498 12.2864 7.45012 12.2864 7.33628C12.2864 5.63989 10.8741 4.25971 9.13823 4.25971ZM8.79962 3.03913C8.91176 3.0308 9.0257 3.02662 9.13821 3.02662C11.5685 3.02662 13.5456 4.95882 13.5456 7.33384C13.5456 7.66949 13.5059 8.00381 13.4277 8.32756C13.3872 8.49487 13.2077 8.59887 13.0379 8.55345C12.8766 8.51026 12.7764 8.34501 12.8149 8.18604C12.882 7.9086 12.916 7.62187 12.916 7.33384C12.916 5.29811 11.2213 3.64194 9.13821 3.64194C9.04149 3.64194 8.94355 3.64555 8.84717 3.65272C8.67431 3.66556 8.52255 3.53859 8.50946 3.36916C8.49633 3.19977 8.62625 3.05196 8.79962 3.03913Z" fill="#893CA9"/>
</svg>
