<svg width="21" height="19" viewBox="0 0 21 19" fill="none" xmlns="http://www.w3.org/2000/svg">
<path d="M20.8912 4.66435C20.7982 6.69087 19.3839 9.46437 16.6483 12.9849C13.8203 16.6607 11.4273 18.5 9.46983 18.5C8.25804 18.5 7.2315 17.3798 6.39354 15.1409C5.83379 13.0878 5.27405 11.034 4.7143 8.98231C4.09147 6.74332 3.42416 5.6225 2.7097 5.6225C2.55433 5.6225 2.00985 5.95051 1.0776 6.60322L0.098877 5.34096C1.12541 4.43926 2.138 3.53689 3.13466 2.6332C4.50381 1.44929 5.53101 0.827132 6.21692 0.764717C7.83574 0.609342 8.83173 1.71622 9.20622 4.08535C9.60993 6.64239 9.89013 8.23266 10.0468 8.85416C10.5143 10.9756 11.0269 12.0354 11.588 12.0354C12.0242 12.0354 12.6776 11.3468 13.5494 9.97166C14.4206 8.59586 14.8874 7.54875 14.9498 6.82964C15.0746 5.64175 14.6071 5.04615 13.5494 5.04615C13.0514 5.04615 12.5388 5.16102 12.0103 5.38744C13.0328 2.03826 14.9856 0.410808 17.8687 0.503767C20.0068 0.566847 21.014 1.95393 20.8912 4.66435Z" fill="white"/>
</svg>
