<svg width="17" height="18" viewBox="0 0 17 18" fill="none" xmlns="http://www.w3.org/2000/svg">
<path d="M1.88889 0.914307C0.845278 0.914307 0 1.75958 0 2.8032V16.0254C0 17.069 0.845278 17.9143 1.88889 17.9143H15.1111C16.1547 17.9143 17 17.069 17 16.0254V2.8032C17 1.75958 16.1547 0.914307 15.1111 0.914307H1.88889ZM1.88889 2.8032H15.1111V16.0254H1.88889V2.8032ZM8.30263 6.44632C7.7454 6.44159 7.27314 6.4488 7.00586 6.57913C6.8283 6.66602 6.69123 6.86109 6.77528 6.87242C6.87823 6.88564 7.11083 6.93484 7.23644 7.10484C7.39605 7.32301 7.39138 7.81318 7.39138 7.81318C7.39138 7.81318 7.48251 9.16134 7.17556 9.32945C6.96495 9.44468 6.67638 9.21072 6.05588 8.13783C5.7376 7.58722 5.49881 6.97941 5.49881 6.97941C5.49881 6.97941 5.45185 6.86462 5.36968 6.80417C5.26863 6.73051 5.12804 6.70641 5.12804 6.70641L3.64497 6.71379C3.64497 6.71379 3.42093 6.71427 3.33876 6.81155C3.26604 6.89844 3.33322 7.0698 3.33322 7.0698C3.33322 7.0698 4.49584 9.77966 5.81239 11.1519C7.02034 12.4099 8.38932 12.2956 8.38932 12.2956H9.01096C9.01096 12.2956 9.19964 12.3063 9.29503 12.2034C9.38286 12.108 9.37988 11.9599 9.37988 11.9599C9.37988 11.9599 9.36806 11.1253 9.75434 11.0025C10.1359 10.8816 10.6248 11.8086 11.1433 12.1646C11.5343 12.4347 11.8332 12.3768 11.8332 12.3768L13.2204 12.3583C13.2204 12.3583 13.945 12.3127 13.6041 11.7385C13.5757 11.6913 13.404 11.3158 12.5729 10.5432C11.7021 9.73477 11.8188 9.86489 12.8662 8.46617C13.5047 7.61523 13.76 7.09531 13.6797 6.87242C13.6032 6.65898 13.1337 6.71563 13.1337 6.71563L11.5731 6.72485C11.5731 6.72485 11.4562 6.70796 11.3702 6.7599C11.2862 6.8109 11.2319 6.92776 11.2319 6.92776C11.2319 6.92776 10.9851 7.5879 10.6545 8.1489C9.96035 9.33229 9.68231 9.3939 9.56803 9.32023C9.30359 9.15023 9.37066 8.63434 9.37066 8.26695C9.37066 7.1204 9.54314 6.64198 9.03125 6.51826C8.86125 6.4767 8.73707 6.45104 8.30263 6.44632Z" fill="#436DF5"/>
</svg>
