<svg width="28" height="28" viewBox="0 0 28 28" fill="none" xmlns="http://www.w3.org/2000/svg">
<path d="M27.3416 13.3686C27.2156 9.92037 25.7625 6.65415 23.2856 4.25187C20.8087 1.8496 17.4996 0.497014 14.0492 0.476566H13.984C11.6604 0.47484 9.3765 1.0781 7.35679 2.22699C5.33712 3.37587 3.65136 5.03079 2.46538 7.0289C1.27941 9.02703 0.634092 11.2995 0.592922 13.6227C0.551752 15.946 1.11615 18.2398 2.23058 20.2787L1.04723 27.3598C1.0453 27.3743 1.04649 27.3891 1.05072 27.4031C1.05494 27.4172 1.06211 27.4301 1.07174 27.4412C1.08137 27.4523 1.09324 27.4611 1.10656 27.4672C1.11988 27.4733 1.13436 27.4765 1.14901 27.4766H1.16937L8.17312 25.9187C9.98274 26.7874 11.9644 27.2382 13.9718 27.2377C14.0994 27.2377 14.227 27.2377 14.3545 27.2377C16.1203 27.1873 17.8586 26.7877 19.4691 26.0619C21.0796 25.3362 22.5304 24.2987 23.7379 23.0092C24.9453 21.7198 25.8854 20.204 26.5039 18.5493C27.1224 16.8946 27.4071 15.1339 27.3416 13.3686ZM14.288 24.9103C14.1821 24.9103 14.0763 24.9103 13.9718 24.9103C12.1977 24.9126 10.449 24.488 8.87337 23.6727L8.5151 23.4854L3.76541 24.6077L4.64207 19.8024L4.43851 19.4577C3.46629 17.8001 2.94262 15.9179 2.91908 13.9963C2.89555 12.0748 3.37295 10.1802 4.30428 8.49932C5.23561 6.8184 6.58874 5.40908 8.23039 4.41017C9.87204 3.41124 11.7456 2.85718 13.6665 2.80256C13.7733 2.80256 13.8805 2.80256 13.9881 2.80256C16.8883 2.81116 19.6691 3.95873 21.7312 5.99803C23.7934 8.03733 24.972 10.8052 25.0129 13.705C25.0538 16.605 23.9539 19.4049 21.9501 21.5016C19.9463 23.5984 17.199 24.824 14.3002 24.9144L14.288 24.9103Z" fill="#25D366"/>
<path d="M9.31953 7.39761C9.1542 7.40084 8.99118 7.43721 8.84013 7.50457C8.68908 7.57194 8.55308 7.66893 8.4402 7.7898C8.12128 8.11685 7.2297 8.90394 7.17813 10.5568C7.12657 12.2097 8.28142 13.845 8.4429 14.0743C8.6044 14.3036 10.6508 17.8741 14.0218 19.322C16.0031 20.1757 16.8716 20.3222 17.4347 20.3222C17.6668 20.3222 17.8419 20.2978 18.025 20.2869C18.6425 20.2489 20.0363 19.5351 20.3402 18.7589C20.6442 17.9826 20.6646 17.3041 20.5845 17.1684C20.5044 17.0327 20.2846 16.935 19.9535 16.7613C19.6224 16.5876 17.9979 15.7191 17.6926 15.5969C17.5794 15.5442 17.4575 15.5125 17.3329 15.5033C17.2518 15.5076 17.173 15.5315 17.1033 15.5732C17.0335 15.6148 16.9749 15.6728 16.9326 15.7421C16.6613 16.08 16.0384 16.8142 15.8293 17.0259C15.7837 17.0785 15.7274 17.1209 15.6643 17.1504C15.6013 17.1798 15.5326 17.1957 15.4629 17.1969C15.3346 17.1913 15.209 17.1574 15.0952 17.0979C14.1112 16.68 13.2141 16.0816 12.4503 15.3337C11.7366 14.6302 11.131 13.8249 10.6535 12.9439C10.469 12.6019 10.6535 12.4255 10.8218 12.2654C10.9901 12.1052 11.1706 11.8841 11.3443 11.6926C11.4868 11.5292 11.6056 11.3465 11.6971 11.1499C11.7445 11.0586 11.7684 10.957 11.7667 10.8542C11.7651 10.7513 11.7379 10.6506 11.6876 10.5609C11.6076 10.3899 11.0091 8.70853 10.7282 8.03407C10.5002 7.45732 10.2288 7.43832 9.99129 7.42068C9.7959 7.40711 9.57198 7.40033 9.34806 7.39354H9.31953" fill="#25D366"/>
</svg>
