<svg width="17" height="17" viewBox="0 0 17 19" fill="none" xmlns="http://www.w3.org/2000/svg">
<path fill-rule="evenodd" clip-rule="evenodd" d="M0.00226309 9.49219C0.00126758 4.3984 3.8038 0.268175 8.49545 0.267094C10.0859 0.265401 11.6448 0.748462 12.9948 1.66133C16.9772 4.3542 18.1949 10.0423 15.7147 14.3661C13.2344 18.6899 7.99534 20.012 4.01292 17.3191L0.473336 18.6911C0.435208 18.706 0.394956 18.7136 0.354406 18.7134C0.310704 18.7134 0.267399 18.7047 0.226617 18.6876C0.0442402 18.6112 -0.0465498 18.3887 0.0238324 18.1907L1.3455 14.4676C0.46879 12.9827 0.00259492 11.256 0.00226309 9.49219ZM11.1374 10.2938C11.6804 10.6012 12.5475 11.0624 12.5475 11.0624C12.6686 11.1271 12.7452 11.261 12.7451 11.4075V12.1761C12.567 13.2954 11.6675 14.1093 10.6213 14.0976C9.50923 14.0976 7.37417 12.6541 6.47722 11.6796C5.58027 10.705 4.25011 8.38693 4.25011 7.18025C4.23936 6.04444 4.98895 5.0678 6.01989 4.87447H6.72779C6.86136 4.87461 6.98344 4.95636 7.04353 5.08585C7.04353 5.0866 7.4718 6.02736 7.75144 6.61764C8.06645 7.28476 7.47535 8.06797 7.13837 8.43765C7.34146 9.0119 7.64807 9.53632 8.04027 9.98022C8.44919 10.406 8.93221 10.7389 9.46105 10.9594C9.80085 10.5936 10.5229 9.95024 11.1374 10.2938Z" fill="#6BBF70"/>
</svg>
