<svg width="26" height="25" viewBox="0 0 26 25" fill="none" xmlns="http://www.w3.org/2000/svg">
<path d="M2.84622 7.7989C2.92999 6.50923 3.96635 5.49599 5.2626 5.43177C7.50246 5.3208 10.6942 5.1875 13.0938 5.1875C15.4933 5.1875 18.685 5.3208 20.9249 5.43177C22.2212 5.49599 23.2575 6.50923 23.3413 7.7989C23.4373 9.27791 23.5312 11.087 23.5312 12.5C23.5312 13.913 23.4373 15.7221 23.3413 17.2011C23.2575 18.4908 22.2212 19.504 20.9249 19.5682C18.685 19.6792 15.4933 19.8125 13.0938 19.8125C10.6942 19.8125 7.50246 19.6792 5.26261 19.5682C3.96635 19.504 2.92999 18.4908 2.84622 17.2011C2.75015 15.7221 2.65625 13.913 2.65625 12.5C2.65625 11.087 2.75015 9.27791 2.84622 7.7989Z" stroke="white"/>
<path d="M10.75 9.375V15.625L17 12.5L10.75 9.375Z" fill="white"/>
</svg>
