<svg width="20" height="17" viewBox="0 0 20 17" fill="none" xmlns="http://www.w3.org/2000/svg">
<path d="M10 0.914307C10 0.914307 3.74555 0.914275 2.18555 1.33228C1.32455 1.56228 0.647969 2.23985 0.417969 3.09985C-3.1352e-05 4.65985 0 8.91431 0 8.91431C0 8.91431 -3.1352e-05 13.1688 0.417969 14.7288C0.647969 15.5898 1.32555 16.2663 2.18555 16.4963C3.74555 16.9143 10 16.9143 10 16.9143C10 16.9143 16.2545 16.9143 17.8145 16.4963C18.6745 16.2663 19.352 15.5888 19.582 14.7288C20 13.1688 20 8.91431 20 8.91431C20 8.91431 20 4.65985 19.582 3.09985C19.352 2.23985 18.6745 1.56228 17.8145 1.33228C16.2545 0.914275 10 0.914307 10 0.914307ZM10 2.91431C12.882 2.91431 16.4909 3.04792 17.2969 3.26392C17.4659 3.30892 17.6044 3.44743 17.6504 3.61743C17.8914 4.51543 18 7.25631 18 8.91431C18 10.5723 17.8914 13.3122 17.6504 14.2112C17.6054 14.3802 17.4669 14.5187 17.2969 14.5647C16.4919 14.7807 12.882 14.9143 10 14.9143C7.119 14.9143 3.51012 14.7807 2.70312 14.5647C2.53413 14.5197 2.39561 14.3812 2.34961 14.2112C2.10861 13.3132 2 10.5723 2 8.91431C2 7.25631 2.10861 4.51548 2.34961 3.61548C2.39461 3.44748 2.53312 3.30892 2.70312 3.26392C3.50813 3.04792 7.118 2.91431 10 2.91431ZM8 5.44946V12.3792L14 8.91431L8 5.44946Z" fill="#ED0006"/>
</svg>
