<svg width="25" height="26" viewBox="0 0 25 26" fill="none" xmlns="http://www.w3.org/2000/svg">
<path fill-rule="evenodd" clip-rule="evenodd" d="M23.2877 12.3972C23.2877 5.27789 20.7799 2.01221 12.4202 2.01221C4.06062 2.01221 1.55273 5.27789 1.55273 12.3972C1.55273 17.4638 2.82291 20.5787 6.5685 21.9537V24.3507C6.5685 25.233 7.67555 25.636 8.249 24.9625L10.1818 22.6923C10.8765 22.7525 11.6217 22.7823 12.4202 22.7823C20.7799 22.7823 23.2877 19.5166 23.2877 12.3972ZM10.6436 21.0548C11.1978 21.0988 11.7893 21.1207 12.4202 21.1207C19.4938 21.1207 21.6158 18.3775 21.6158 12.3972C21.6158 6.41698 19.4938 3.67381 12.4202 3.67381C5.34671 3.67381 3.22466 6.41698 3.22466 12.3972C3.22466 16.6243 4.28486 19.234 7.40447 20.4009V23.952C7.40447 24.2616 7.7929 24.403 7.99411 24.1667L10.6436 21.0548Z" fill="#BFC8D0"/>
<path d="M12.4205 20.5296C11.7813 20.5296 11.1821 20.5074 10.6208 20.4627L7.93687 23.627C7.73304 23.8673 7.33956 23.7235 7.33956 23.4087V19.7977C4.17945 18.6112 3.10547 15.9574 3.10547 11.6591C3.10547 5.578 5.25508 2.78857 12.4205 2.78857C19.5859 2.78857 21.7355 5.578 21.7355 11.6591C21.7355 17.7402 19.5859 20.5296 12.4205 20.5296Z" stroke="white"/>
<path fill-rule="evenodd" clip-rule="evenodd" d="M23.2877 11.6214C23.2877 4.50201 20.7799 1.23633 12.4202 1.23633C4.06062 1.23633 1.55273 4.50201 1.55273 11.6214C1.55273 16.688 2.82291 19.8028 6.5685 21.1778V23.5748C6.5685 24.4571 7.67555 24.8601 8.249 24.1866L10.1818 21.9165C10.8765 21.9766 11.6217 22.0064 12.4202 22.0064C20.7799 22.0064 23.2877 18.7407 23.2877 11.6214ZM10.6436 20.2789C11.1978 20.323 11.7893 20.3448 12.4202 20.3448C19.4938 20.3448 21.6158 17.6016 21.6158 11.6214C21.6158 5.6411 19.4938 2.89793 12.4202 2.89793C5.34671 2.89793 3.22466 5.6411 3.22466 11.6214C3.22466 15.8484 4.28486 18.4581 7.40447 19.625V23.1762C7.40447 23.4857 7.7929 23.6272 7.99411 23.3908L10.6436 20.2789Z" fill="white"/>
<path d="M9.61752 10.3938L9.58578 10.4125L9.55812 10.4368C9.33744 10.6307 9.02302 11.1451 9.3018 11.7782C9.54619 12.3332 10.0903 13.4658 11.0468 14.3194C11.9845 15.1563 12.9874 15.6078 13.6478 15.7558L13.6898 15.7651H13.7279C13.7298 15.7653 13.7335 15.7658 13.7396 15.7667C13.7552 15.769 13.774 15.7725 13.8038 15.778C13.8083 15.7789 13.813 15.7797 13.8178 15.7806C14.0224 15.819 14.5102 15.9104 14.9139 15.483C15.1762 15.2053 15.4155 14.9157 15.517 14.7873C15.5942 14.7112 15.8309 14.5682 16.1263 14.6743C16.6912 14.8772 17.3629 15.335 17.6875 15.5671C17.9389 15.7468 18.5073 16.1795 18.7634 16.376L18.7635 16.3761C18.7872 16.3942 18.843 16.4532 18.8742 16.539C18.9012 16.6131 18.9129 16.7134 18.8541 16.8471C18.7541 17.0746 18.4567 17.4967 18.0586 17.8635C17.651 18.2391 17.2294 18.4719 16.8944 18.4719C16.8958 18.4719 16.8945 18.4717 16.8902 18.4711C16.8746 18.4689 16.8192 18.4608 16.7104 18.4348C16.5863 18.4052 16.4185 18.3587 16.2135 18.2932C15.8038 18.1622 15.2539 17.958 14.6189 17.6677C13.348 17.0868 11.7468 16.1664 10.247 14.81C9.30228 13.9556 8.41134 12.7746 7.71783 11.6696C7.01957 10.5571 6.54914 9.56608 6.41967 9.10231L6.41199 9.0748L6.40036 9.04871C6.36577 8.97106 6.31878 8.81037 6.31783 8.62775C6.3169 8.44893 6.3596 8.27592 6.47095 8.13415C6.81417 7.69713 7.17779 7.26808 7.97641 6.85758C8.0515 6.81898 8.16744 6.78569 8.28046 6.78376C8.39464 6.78181 8.45697 6.81128 8.48591 6.83824C8.79144 7.12289 9.26526 7.62552 9.58523 8.05612C9.75003 8.27789 9.94907 8.55944 10.1149 8.8041C10.1979 8.92645 10.2712 9.03762 10.3271 9.12624C10.3552 9.17064 10.3777 9.20764 10.3945 9.23652C10.4099 9.263 10.4164 9.27585 10.4177 9.27856C10.4178 9.27873 10.4179 9.27916 10.4181 9.27984C10.42 9.28583 10.428 9.31151 10.4346 9.35739C10.4422 9.40973 10.4458 9.47381 10.4407 9.54096C10.4301 9.67961 10.3863 9.79447 10.3079 9.8708C10.0681 10.1041 9.74422 10.3193 9.61752 10.3938ZM13.4404 5.50522C13.4404 5.47372 13.4659 5.44818 13.4974 5.44818C16.7251 5.44818 19.3416 8.06469 19.3416 11.2923C19.3416 11.3238 19.316 11.3494 19.2845 11.3494C19.253 11.3494 19.2275 11.3238 19.2275 11.2923C19.2275 8.12769 16.6621 5.56226 13.4974 5.56226C13.4659 5.56226 13.4404 5.53672 13.4404 5.50522ZM13.4404 9.06651C13.4404 9.03501 13.4659 9.00947 13.4974 9.00947C14.7582 9.00947 15.7803 10.0315 15.7803 11.2923C15.7803 11.3238 15.7547 11.3494 15.7232 11.3494C15.6917 11.3494 15.6662 11.3238 15.6662 11.2923C15.6662 10.0945 14.6952 9.12355 13.4974 9.12355C13.4659 9.12355 13.4404 9.09801 13.4404 9.06651ZM13.4404 7.28587C13.4404 7.25436 13.4659 7.22883 13.4974 7.22883C15.7416 7.22883 17.5609 9.04811 17.5609 11.2923C17.5609 11.3238 17.5354 11.3494 17.5039 11.3494C17.4724 11.3494 17.4468 11.3238 17.4468 11.2923C17.4468 9.11111 15.6786 7.3429 13.4974 7.3429C13.4659 7.3429 13.4404 7.31737 13.4404 7.28587Z" fill="white" stroke="white" stroke-width="0.77625" stroke-linecap="round"/>
</svg>
