<svg width="25" height="25" viewBox="0 0 25 25" fill="none" xmlns="http://www.w3.org/2000/svg">
<rect x="2.0625" y="2.0625" width="20.875" height="20.875" rx="5.5" stroke="white"/>
<path d="M17.9088 14.3235C17.7405 14.0951 17.7028 13.864 17.7948 13.6298C18.0243 13.0049 21.3667 9.03603 19.9743 9.03603C19.0175 9.04875 17.8669 9.03603 16.9496 9.03603C16.7793 9.07749 16.6691 9.16685 16.6001 9.34868C16.0638 10.5855 15.4074 12.0949 14.4454 13.065C14.3188 13.167 14.2399 13.1626 14.0957 13.1249C13.4209 12.4145 14.1404 9.98053 13.7301 9.01879C13.6492 8.83054 13.4722 8.74551 13.291 8.69763C12.3749 8.47929 10.2826 8.60925 9.94117 9.04875C9.84358 9.17439 9.82997 9.24296 9.90042 9.25423C10.2257 9.30555 10.456 9.42831 10.5915 9.62239C10.8472 10.1854 11.0356 13.1847 10.2826 13.1847C9.52954 13.1847 8.31526 10.2413 7.98167 9.42528C7.8929 9.17959 7.66692 9.03874 7.4288 8.99716L5.20101 9.0142C4.80942 9.0142 4.59057 9.20737 4.72936 9.59654C5.88969 12.4768 8.42889 18.0597 12.3234 17.9199C12.7135 17.9199 13.3847 18.0697 13.6894 17.7315C14.1081 17.176 13.5974 16.1866 14.3154 15.8093C14.4965 15.7129 14.6842 15.7937 14.8398 15.9122C15.6384 16.5203 16.0624 17.5877 17.0473 17.9117C17.2205 17.9687 17.3722 17.983 17.5025 17.9545L19.5839 17.9203C19.9703 17.9203 20.351 17.7484 20.271 17.2864C19.9676 16.2957 18.7584 15.2773 17.9088 14.3235Z" fill="white"/>
</svg>
