<svg aria-hidden="true" xmlns="http://www.w3.org/2000/svg" xmlns:xlink="http://www.w3.org/1999/xlink"><symbol viewBox="0 0 10 15" fill="none" id="arrow" xmlns="http://www.w3.org/2000/svg">
<path fill-rule="evenodd" clip-rule="evenodd" d="M10 7.5L2.14286 15L-8.62048e-08 12.9545L5.71429 7.5L-5.45964e-07 2.04545L2.28571 -1.03626e-07L10 7.5Z" fill="currentColor"/>
</symbol><symbol viewBox="0 0 8 7" fill="none" id="arrowDown" xmlns="http://www.w3.org/2000/svg">
<path d="M2.9214 6.27847C2.8866 6.24457 2.7378 6.11656 2.6154 5.99732C1.8456 5.29825 0.5856 3.47457 0.201 2.52007C0.1392 2.37511 0.0084 2.00862 0 1.81281C0 1.62518 0.0432 1.44632 0.1308 1.27565C0.2532 1.06288 0.4458 0.892207 0.6732 0.798685C0.831 0.73848 1.3032 0.644959 1.3116 0.644959C1.8282 0.551437 2.6676 0.5 3.5952 0.5C4.479 0.5 5.2842 0.551437 5.8086 0.628008C5.817 0.636775 6.4038 0.730297 6.6048 0.832586C6.972 1.02021 7.2 1.3867 7.2 1.77891V1.81281C7.191 2.06824 6.963 2.60541 6.9546 2.60541C6.5694 3.50848 5.3712 5.29006 4.575 6.00609C4.575 6.00609 4.3704 6.20775 4.2426 6.29542C4.059 6.4322 3.8316 6.5 3.6042 6.5C3.3504 6.5 3.114 6.42343 2.9214 6.27847Z" fill="currentColor"/>
</symbol><symbol viewBox="0 0 10 4" fill="none" id="dotted" xmlns="http://www.w3.org/2000/svg">
<path d="M1.30761 3.098C0.990276 3.098 0.719609 2.99067 0.495609 2.776C0.271609 2.552 0.159609 2.272 0.159609 1.936C0.159609 1.58133 0.271609 1.30133 0.495609 1.096C0.719609 0.881333 0.990276 0.774 1.30761 0.774C1.62494 0.774 1.89561 0.881333 2.11961 1.096C2.34361 1.30133 2.45561 1.58133 2.45561 1.936C2.45561 2.272 2.34361 2.552 2.11961 2.776C1.89561 2.99067 1.62494 3.098 1.30761 3.098ZM4.72558 3.098C4.40824 3.098 4.13758 2.99067 3.91358 2.776C3.68958 2.552 3.57758 2.272 3.57758 1.936C3.57758 1.58133 3.68958 1.30133 3.91358 1.096C4.13758 0.881333 4.40824 0.774 4.72558 0.774C5.04291 0.774 5.31358 0.881333 5.53758 1.096C5.76158 1.30133 5.87358 1.58133 5.87358 1.936C5.87358 2.272 5.76158 2.552 5.53758 2.776C5.31358 2.99067 5.04291 3.098 4.72558 3.098ZM8.14355 3.098C7.82621 3.098 7.55555 2.99067 7.33155 2.776C7.10755 2.552 6.99555 2.272 6.99555 1.936C6.99555 1.58133 7.10755 1.30133 7.33155 1.096C7.55555 0.881333 7.82621 0.774 8.14355 0.774C8.46088 0.774 8.73155 0.881333 8.95555 1.096C9.17955 1.30133 9.29155 1.58133 9.29155 1.936C9.29155 2.272 9.17955 2.552 8.95555 2.776C8.73155 2.99067 8.46088 3.098 8.14355 3.098Z" fill="currentColor"/>
</symbol><symbol viewBox="0 0 17 18" fill="none" id="facebook" xmlns="http://www.w3.org/2000/svg">
<path d="M8.5 0.914307C3.81565 0.914307 0 4.72995 0 9.41431C0 14.0987 3.81565 17.9143 8.5 17.9143C13.1844 17.9143 17 14.0987 17 9.41431C17 4.72995 13.1844 0.914307 8.5 0.914307ZM8.5 2.61431C12.2656 2.61431 15.3 5.6487 15.3 9.41431C15.3 12.8266 12.8055 15.6304 9.53594 16.128V11.4414H11.5148L11.8253 9.43091H9.53594V8.33188C9.53594 7.49633 9.80814 6.75474 10.5901 6.75474H11.8452V4.99995C11.6242 4.9702 11.1578 4.90532 10.2764 4.90532C8.43527 4.90532 7.35615 5.87772 7.35615 8.09282V9.43091H5.46357V11.4414H7.35615V16.1114C4.13975 15.569 1.7 12.789 1.7 9.41431C1.7 5.6487 4.7344 2.61431 8.5 2.61431Z" fill="currentColor"/>
</symbol><symbol viewBox="0 0 17 19" fill="none" id="instagram" xmlns="http://www.w3.org/2000/svg">
<path d="M12.9067 5.85365C13.47 5.85365 13.9267 5.35784 13.9267 4.74622C13.9267 4.13461 13.47 3.63879 12.9067 3.63879C12.3434 3.63879 11.8867 4.13461 11.8867 4.74622C11.8867 5.35784 12.3434 5.85365 12.9067 5.85365Z" fill="currentColor"/>
<path fill-rule="evenodd" clip-rule="evenodd" d="M4.25 9.48514C4.25 12.0299 6.15612 14.0994 8.5 14.0994C10.8439 14.0994 12.75 12.0299 12.75 9.48514C12.75 6.94036 10.8439 4.87085 8.5 4.87085C6.15612 4.87085 4.25 6.94036 4.25 9.48514ZM6.375 9.48567C6.375 8.21328 7.32806 7.17852 8.5 7.17852C9.67194 7.17852 10.625 8.21328 10.625 9.48567C10.625 10.7581 9.67194 11.7928 8.5 11.7928C7.32806 11.7928 6.375 10.7581 6.375 9.48567Z" fill="currentColor"/>
<path fill-rule="evenodd" clip-rule="evenodd" d="M4.25 18.7143H12.75C14.9345 18.7143 17 16.4718 17 14.1001V4.87149C17 2.49974 14.9345 0.257202 12.75 0.257202H4.25C2.0655 0.257202 0 2.49974 0 4.87149V14.1001C0 16.4718 2.0655 18.7143 4.25 18.7143ZM2.125 4.87261C2.125 3.79403 3.25656 2.56547 4.25 2.56547H12.75C13.7434 2.56547 14.875 3.79403 14.875 4.87261V14.1012C14.875 15.1798 13.7434 16.4083 12.75 16.4083H4.25C3.23744 16.4083 2.125 15.2005 2.125 14.1012V4.87261Z" fill="currentColor"/>
</symbol><symbol viewBox="0 0 20 22" fill="none" id="phone" xmlns="http://www.w3.org/2000/svg">
<path fill-rule="evenodd" clip-rule="evenodd" d="M2.30157 3.24259C2.30352 3.24259 2.25474 3.29767 2.19328 3.36334C1.95719 3.61225 1.46842 4.13021 1.46349 5.21379C1.45574 6.72953 2.37376 9.54387 6.79414 14.3421C11.194 19.1171 13.7822 20.1255 15.1812 20.1255H15.2017C16.1997 20.1202 16.6758 19.5884 16.9061 19.3332C16.9763 19.2548 17.0329 19.1976 17.0729 19.1616C18.0446 18.1002 18.5421 17.3101 18.5373 16.8038C18.5304 16.2869 17.9382 15.6757 17.1197 14.8304C16.8592 14.5614 16.5763 14.269 16.2778 13.9449C15.5042 13.1071 15.1208 13.2501 14.2778 13.5721C13.112 14.0159 11.5121 14.6196 9.02627 11.9197C6.53658 9.21869 7.09364 7.48369 7.50143 6.21793C7.79606 5.30276 7.93069 4.88543 7.15608 4.04441C6.85267 3.71606 6.58048 3.40465 6.32976 3.11866C5.55612 2.23527 4.99808 1.59656 4.52493 1.58915H4.51712C4.04982 1.58915 3.32398 2.13147 2.29669 3.24682C2.29962 3.24365 2.30059 3.24259 2.30157 3.24259ZM15.1822 21.7143C12.7511 21.7143 9.58138 19.6128 5.76002 15.466C1.92402 11.3022 -0.0144702 7.85018 8.13174e-05 5.20532C0.00894381 3.45761 0.852825 2.56257 1.16989 2.2268C1.18647 2.20455 1.24306 2.14418 1.26257 2.12299C2.66156 0.603015 3.60495 -0.011331 4.54346 0.000157969C5.63319 0.0162087 6.40878 0.901715 7.39022 2.02343C7.63314 2.30094 7.89655 2.60282 8.1902 2.92058C9.61455 4.46704 9.20871 5.72857 8.88286 6.74118C8.52775 7.84595 8.22044 8.79924 10.0604 10.7969C11.9023 12.7946 12.7803 12.461 13.794 12.0722C14.7276 11.7184 15.8866 11.2757 17.3129 12.8222C17.6017 13.1357 17.8758 13.4185 18.1285 13.6801C19.1665 14.751 19.986 15.5973 19.9998 16.7836C20.0114 17.7952 19.4455 18.8258 18.0485 20.3437L17.43 19.8882L17.9529 20.4432C17.6436 20.7875 16.8202 21.7048 15.2095 21.7143H15.1822Z" fill="currentColor"/>
</symbol><symbol viewBox="0 0 11 16" fill="none" id="sliderArrow" xmlns="http://www.w3.org/2000/svg">
<path fill-rule="evenodd" clip-rule="evenodd" d="M0.0351562 8.3446L7.8923 0.844604L10.0352 2.89006L4.32087 8.3446L10.0352 13.7992L7.74944 15.8446L0.0351562 8.3446Z" fill="currentColor"/>
</symbol><symbol viewBox="0 0 17 17" fill="none" id="telegramm" xmlns="http://www.w3.org/2000/svg">
<path d="M6.6705 10.9329L6.3893 15.2273C6.79163 15.2273 6.96588 15.0396 7.17484 14.8143L9.06113 12.8571L12.9697 15.9648C13.6865 16.3985 14.1916 16.1701 14.385 15.2488L16.9505 2.19652L16.9513 2.19575C17.1786 1.04526 16.568 0.595367 15.8696 0.877607L0.78921 7.14611C-0.239999 7.57986 -0.224416 8.20279 0.614251 8.48503L4.46971 9.78702L13.4252 3.70309C13.8466 3.40008 14.2298 3.56774 13.9146 3.87074L6.6705 10.9329Z" fill="currentColor"/>
</symbol><symbol viewBox="0 0 17 19" fill="none" id="viber" xmlns="http://www.w3.org/2000/svg">
<path d="M4.72222 15.3255C2.42046 14.2578 0.944436 11.988 0.944436 9.48691V6.71799C0.944436 3.15547 3.91017 0.257202 7.55556 0.257202H6.61113C2.9657 0.257202 0 3.15547 0 6.71802V9.48695C0 11.9881 1.47603 14.2578 3.77778 15.3255V18.409C3.77778 18.6768 4.12051 18.8167 4.3152 18.6266L4.72222 18.2288V15.3255Z" fill="currentColor"/>
<path fill-rule="evenodd" clip-rule="evenodd" d="M6.61113 0.257202H10.3889C14.0343 0.257202 17 3.15547 17 6.71802V9.48695C17 13.0495 14.0343 15.9478 10.3889 15.9478H7.05629L4.3152 18.6266C4.12051 18.8167 3.77778 18.6768 3.77778 18.409V15.3255C1.47603 14.2578 0 11.9881 0 9.48695V6.71802C0 3.15547 2.9657 0.257202 6.61113 0.257202ZM12.9711 10.2252L13.2541 11.7236C13.2619 11.7647 13.261 11.8069 13.2517 11.8477C13.1917 12.1056 13.0842 12.3488 12.9351 12.5664C12.5798 12.7919 12.1472 12.9069 11.654 12.9069C11.4788 12.9069 11.2962 12.8925 11.1066 12.8633C9.60127 12.6318 7.50646 11.9111 6.14143 10.5823L6.12283 10.5643C4.76223 9.22932 4.02477 7.18217 3.78799 5.71115C3.67404 5.0034 3.77939 4.39363 4.09253 3.92308C3.97261 4.00127 3.86007 4.09096 3.75697 4.19172C3.43003 4.51122 3.2328 4.92494 3.17086 5.4121C3.23252 4.92411 3.42984 4.50972 3.75721 4.18979C4.05124 3.90237 4.42064 3.70302 4.82548 3.61315C4.86716 3.60389 4.91039 3.60309 4.95237 3.61063L6.48565 3.8872C6.61232 3.91005 6.71195 4.00601 6.73722 4.12941L7.18242 6.3049C7.20304 6.40576 7.17073 6.51009 7.09632 6.58284L6.19486 7.46377C6.93896 9.0168 7.78465 9.84506 9.30841 10.5123L10.2128 9.62844C10.2873 9.55573 10.3938 9.52419 10.4972 9.5443L12.7233 9.97938C12.8496 10.0041 12.9477 10.1014 12.9711 10.2252ZM3.19432 6.29132C3.14384 5.97784 3.13634 5.68357 3.17086 5.4121C3.13662 5.68303 3.1442 5.97666 3.19456 6.2894C3.43134 7.76042 4.1688 9.80757 5.52941 11.1426L5.548 11.1606C6.91299 12.4893 9.00781 13.2101 10.5131 13.4415C10.7028 13.4707 10.8854 13.4852 11.0605 13.4852C11.7133 13.4852 12.2601 13.284 12.6616 12.8916C12.764 12.7916 12.8554 12.6826 12.9351 12.5664L12.9363 12.5657C12.8562 12.6829 12.7645 12.7928 12.6614 12.8936C12.2599 13.2859 11.713 13.4871 11.0603 13.4871C10.8852 13.4871 10.7025 13.4727 10.5129 13.4435C9.00757 13.212 6.91275 12.4913 5.54776 11.1625L5.52916 11.1445C4.16856 9.80949 3.4311 7.76234 3.19432 6.29132ZM6.79166 6.88391L7.09928 6.58325L6.79163 6.88388L6.79166 6.88391ZM9.91064 9.93321L10.2209 9.63L10.221 9.63005L9.9107 9.93326L9.91064 9.93321ZM8.8219 5.79621C8.8219 5.62631 8.96285 5.48856 9.1367 5.48856C10.1783 5.48856 11.0256 6.31661 11.0256 7.33449C11.0256 7.50212 10.8823 7.64214 10.7108 7.64214C10.5392 7.64214 10.396 7.50212 10.396 7.33449C10.396 6.6559 9.83107 6.10385 9.1367 6.10385C8.96285 6.10385 8.8219 5.96611 8.8219 5.79621ZM9.13823 4.25971C9.02177 4.25971 8.90425 4.26602 8.78886 4.27846C8.61604 4.2971 8.4914 4.44912 8.51047 4.61804C8.52954 4.78697 8.68543 4.90845 8.85796 4.8901C8.95047 4.88012 9.04475 4.87503 9.13823 4.87503C10.5269 4.87503 11.6567 5.97914 11.6567 7.33628C11.6567 7.42767 11.6515 7.51981 11.6413 7.61022C11.6225 7.7768 11.7492 7.93145 11.9197 7.9498C12.0902 7.96815 12.2483 7.84439 12.2672 7.67774C12.2799 7.56498 12.2864 7.45012 12.2864 7.33628C12.2864 5.63989 10.8741 4.25971 9.13823 4.25971ZM8.79962 3.03913C8.91176 3.0308 9.0257 3.02662 9.13821 3.02662C11.5685 3.02662 13.5456 4.95882 13.5456 7.33384C13.5456 7.66949 13.5059 8.00381 13.4277 8.32756C13.3872 8.49487 13.2077 8.59887 13.0379 8.55345C12.8766 8.51026 12.7764 8.34501 12.8149 8.18604C12.882 7.9086 12.916 7.62187 12.916 7.33384C12.916 5.29811 11.2213 3.64194 9.13821 3.64194C9.04149 3.64194 8.94355 3.64555 8.84717 3.65272C8.67431 3.66556 8.52255 3.53859 8.50946 3.36916C8.49633 3.19977 8.62625 3.05196 8.79962 3.03913Z" fill="currentColor"/>
</symbol><symbol viewBox="0 0 17 18" fill="none" id="vk" xmlns="http://www.w3.org/2000/svg">
<path d="M1.88889 0.914307C0.845278 0.914307 0 1.75958 0 2.8032V16.0254C0 17.069 0.845278 17.9143 1.88889 17.9143H15.1111C16.1547 17.9143 17 17.069 17 16.0254V2.8032C17 1.75958 16.1547 0.914307 15.1111 0.914307H1.88889ZM1.88889 2.8032H15.1111V16.0254H1.88889V2.8032ZM8.30263 6.44632C7.7454 6.44159 7.27314 6.4488 7.00586 6.57913C6.8283 6.66602 6.69123 6.86109 6.77528 6.87242C6.87823 6.88564 7.11083 6.93484 7.23644 7.10484C7.39605 7.32301 7.39138 7.81318 7.39138 7.81318C7.39138 7.81318 7.48251 9.16134 7.17556 9.32945C6.96495 9.44468 6.67638 9.21072 6.05588 8.13783C5.7376 7.58722 5.49881 6.97941 5.49881 6.97941C5.49881 6.97941 5.45185 6.86462 5.36968 6.80417C5.26863 6.73051 5.12804 6.70641 5.12804 6.70641L3.64497 6.71379C3.64497 6.71379 3.42093 6.71427 3.33876 6.81155C3.26604 6.89844 3.33322 7.0698 3.33322 7.0698C3.33322 7.0698 4.49584 9.77966 5.81239 11.1519C7.02034 12.4099 8.38932 12.2956 8.38932 12.2956H9.01096C9.01096 12.2956 9.19964 12.3063 9.29503 12.2034C9.38286 12.108 9.37988 11.9599 9.37988 11.9599C9.37988 11.9599 9.36806 11.1253 9.75434 11.0025C10.1359 10.8816 10.6248 11.8086 11.1433 12.1646C11.5343 12.4347 11.8332 12.3768 11.8332 12.3768L13.2204 12.3583C13.2204 12.3583 13.945 12.3127 13.6041 11.7385C13.5757 11.6913 13.404 11.3158 12.5729 10.5432C11.7021 9.73477 11.8188 9.86489 12.8662 8.46617C13.5047 7.61523 13.76 7.09531 13.6797 6.87242C13.6032 6.65898 13.1337 6.71563 13.1337 6.71563L11.5731 6.72485C11.5731 6.72485 11.4562 6.70796 11.3702 6.7599C11.2862 6.8109 11.2319 6.92776 11.2319 6.92776C11.2319 6.92776 10.9851 7.5879 10.6545 8.1489C9.96035 9.33229 9.68231 9.3939 9.56803 9.32023C9.30359 9.15023 9.37066 8.63434 9.37066 8.26695C9.37066 7.1204 9.54314 6.64198 9.03125 6.51826C8.86125 6.4767 8.73707 6.45104 8.30263 6.44632Z" fill="currentColor"/>
</symbol><symbol viewBox="0 0 17 19" fill="none" id="whatsUp" xmlns="http://www.w3.org/2000/svg">
<path fill-rule="evenodd" clip-rule="evenodd" d="M0.00226309 9.49219C0.00126758 4.3984 3.8038 0.268175 8.49545 0.267094C10.0859 0.265401 11.6448 0.748462 12.9948 1.66133C16.9772 4.3542 18.1949 10.0423 15.7147 14.3661C13.2344 18.6899 7.99534 20.012 4.01292 17.3191L0.473336 18.6911C0.435208 18.706 0.394956 18.7136 0.354406 18.7134C0.310704 18.7134 0.267399 18.7047 0.226617 18.6876C0.0442402 18.6112 -0.0465498 18.3887 0.0238324 18.1907L1.3455 14.4676C0.46879 12.9827 0.00259492 11.256 0.00226309 9.49219ZM11.1374 10.2938C11.6804 10.6012 12.5475 11.0624 12.5475 11.0624C12.6686 11.1271 12.7452 11.261 12.7451 11.4075V12.1761C12.567 13.2954 11.6675 14.1093 10.6213 14.0976C9.50923 14.0976 7.37417 12.6541 6.47722 11.6796C5.58027 10.705 4.25011 8.38693 4.25011 7.18025C4.23936 6.04444 4.98895 5.0678 6.01989 4.87447H6.72779C6.86136 4.87461 6.98344 4.95636 7.04353 5.08585C7.04353 5.0866 7.4718 6.02736 7.75144 6.61764C8.06645 7.28476 7.47535 8.06797 7.13837 8.43765C7.34146 9.0119 7.64807 9.53632 8.04027 9.98022C8.44919 10.406 8.93221 10.7389 9.46105 10.9594C9.80085 10.5936 10.5229 9.95024 11.1374 10.2938Z" fill="currentColor"/>
</symbol><symbol viewBox="0 0 20 17" fill="none" id="youTube" xmlns="http://www.w3.org/2000/svg">
<path d="M10 0.914307C10 0.914307 3.74555 0.914275 2.18555 1.33228C1.32455 1.56228 0.647969 2.23985 0.417969 3.09985C-3.1352e-05 4.65985 0 8.91431 0 8.91431C0 8.91431 -3.1352e-05 13.1688 0.417969 14.7288C0.647969 15.5898 1.32555 16.2663 2.18555 16.4963C3.74555 16.9143 10 16.9143 10 16.9143C10 16.9143 16.2545 16.9143 17.8145 16.4963C18.6745 16.2663 19.352 15.5888 19.582 14.7288C20 13.1688 20 8.91431 20 8.91431C20 8.91431 20 4.65985 19.582 3.09985C19.352 2.23985 18.6745 1.56228 17.8145 1.33228C16.2545 0.914275 10 0.914307 10 0.914307ZM10 2.91431C12.882 2.91431 16.4909 3.04792 17.2969 3.26392C17.4659 3.30892 17.6044 3.44743 17.6504 3.61743C17.8914 4.51543 18 7.25631 18 8.91431C18 10.5723 17.8914 13.3122 17.6504 14.2112C17.6054 14.3802 17.4669 14.5187 17.2969 14.5647C16.4919 14.7807 12.882 14.9143 10 14.9143C7.119 14.9143 3.51012 14.7807 2.70312 14.5647C2.53413 14.5197 2.39561 14.3812 2.34961 14.2112C2.10861 13.3132 2 10.5723 2 8.91431C2 7.25631 2.10861 4.51548 2.34961 3.61548C2.39461 3.44748 2.53312 3.30892 2.70312 3.26392C3.50813 3.04792 7.118 2.91431 10 2.91431ZM8 5.44946V12.3792L14 8.91431L8 5.44946Z" fill="currentColor"/>
</symbol></svg>