<svg width="191" height="64" viewBox="0 0 191 64" fill="none" xmlns="http://www.w3.org/2000/svg">
<path d="M31.6089 0.559082L32.5985 3.51772H35.8009L33.2101 5.34626L34.1997 8.3049L31.6089 6.47636L29.0181 8.3049L30.0077 5.34626L27.4169 3.51772H30.6193L31.6089 0.559082Z" fill="white"/>
<path d="M45.4624 4.08521L46.452 7.04384H49.6544L47.0636 8.87238L48.0532 11.831L45.4624 10.0025L42.8716 11.831L43.8612 8.87238L41.2704 7.04384H44.4728L45.4624 4.08521Z" fill="white"/>
<path d="M17.7563 4.08521L18.7459 7.04384H21.9483L19.3575 8.87238L20.3471 11.831L17.7563 10.0025L15.1656 11.831L16.1552 8.87238L13.5644 7.04384H16.7668L17.7563 4.08521Z" fill="white"/>
<path d="M7.93359 14.16L8.92319 17.1187H12.1256L9.53479 18.9472L10.5244 21.9058L7.93359 20.0773L5.3428 21.9058L6.3324 18.9472L3.74161 17.1187H6.944L7.93359 14.16Z" fill="white"/>
<path d="M55.0342 14.16L56.0238 17.1187H59.2262L56.6354 18.9472L57.625 21.9058L55.0342 20.0773L52.4434 21.9058L53.433 18.9472L50.8422 17.1187H54.0446L55.0342 14.16Z" fill="white"/>
<path d="M59.3149 27.7609L60.3045 30.7195H63.5069L60.9161 32.548L61.9057 35.5067L59.3149 33.6781L56.7242 35.5067L57.7137 32.548L55.123 30.7195H58.3253L59.3149 27.7609Z" fill="white"/>
<path d="M4.40772 27.7609L5.39731 30.7195H8.5997L6.00891 32.548L6.99851 35.5067L4.40772 33.6781L1.81693 35.5067L2.80652 32.548L0.215729 30.7195H3.41812L4.40772 27.7609Z" fill="white"/>
<path d="M7.93359 41.3619L8.92319 44.3206H12.1256L9.53479 46.1491L10.5244 49.1078L7.93359 47.2792L5.3428 49.1078L6.3324 46.1491L3.74161 44.3206H6.944L7.93359 41.3619Z" fill="white"/>
<path d="M17.7563 51.4368L18.7459 54.3954H21.9483L19.3575 56.2239L20.3471 59.1826L17.7563 57.354L15.1656 59.1826L16.1552 56.2239L13.5644 54.3954H16.7668L17.7563 51.4368Z" fill="white"/>
<path d="M31.6089 54.7109L32.5985 57.6696H35.8009L33.2101 59.4981L34.1997 62.4568L31.6089 60.6282L29.0181 62.4568L30.0077 59.4981L27.4169 57.6696H30.6193L31.6089 54.7109Z" fill="white"/>
<path d="M45.4624 51.4368L46.452 54.3954H49.6544L47.0636 56.2239L48.0532 59.1826L45.4624 57.354L42.8716 59.1826L43.8612 56.2239L41.2704 54.3954H44.4728L45.4624 51.4368Z" fill="white"/>
<path d="M55.0342 41.3619L56.0238 44.3206H59.2262L56.6354 46.1491L57.625 49.1078L55.0342 47.2792L52.4434 49.1078L53.433 46.1491L50.8422 44.3206H54.0446L55.0342 41.3619Z" fill="white"/>
<path d="M75.8991 37.6871C75.6724 37.6871 75.4911 37.6191 75.3551 37.4831C75.2191 37.3471 75.1511 37.1658 75.1511 36.9391V14.6351C75.1511 14.4085 75.2191 14.2271 75.3551 14.0911C75.4911 13.9551 75.6724 13.8871 75.8991 13.8871H76.5451C76.7717 13.8871 76.9531 13.9551 77.0891 14.0911C77.2251 14.2271 77.2931 14.4085 77.2931 14.6351V36.9391C77.2931 37.1658 77.2251 37.3471 77.0891 37.4831C76.9531 37.6191 76.7717 37.6871 76.5451 37.6871H75.8991ZM87.4923 37.6871C87.2656 37.6871 87.0843 37.6191 86.9483 37.4831C86.8123 37.3471 86.7443 37.1658 86.7443 36.9391V14.6691C86.7443 14.4198 86.8123 14.2271 86.9483 14.0911C87.0843 13.9551 87.2656 13.8871 87.4923 13.8871H88.2063C88.4329 13.8871 88.6029 13.9438 88.7163 14.0571C88.8296 14.1705 88.8976 14.2498 88.9203 14.2951L101.466 33.4711V14.6691C101.466 14.4198 101.534 14.2271 101.67 14.0911C101.806 13.9551 101.988 13.8871 102.214 13.8871H102.826C103.076 13.8871 103.268 13.9551 103.404 14.0911C103.54 14.2271 103.608 14.4198 103.608 14.6691V36.9051C103.608 37.1318 103.54 37.3245 103.404 37.4831C103.268 37.6191 103.087 37.6871 102.86 37.6871H102.112C101.886 37.6871 101.716 37.6305 101.602 37.5171C101.512 37.4038 101.444 37.3245 101.398 37.2791L88.8863 18.1711V36.9391C88.8863 37.1658 88.8183 37.3471 88.6823 37.4831C88.5463 37.6191 88.3536 37.6871 88.1043 37.6871H87.4923ZM120.22 37.6871C119.926 37.6871 119.688 37.6191 119.506 37.4831C119.325 37.3471 119.178 37.1431 119.064 36.8711L111.176 14.9411C111.131 14.8051 111.108 14.6805 111.108 14.5671C111.108 14.3858 111.176 14.2271 111.312 14.0911C111.448 13.9551 111.607 13.8871 111.788 13.8871H112.502C112.729 13.8871 112.899 13.9551 113.012 14.0911C113.148 14.2045 113.228 14.3065 113.25 14.3971L120.696 35.2051L128.142 14.3971C128.188 14.3065 128.267 14.2045 128.38 14.0911C128.494 13.9551 128.664 13.8871 128.89 13.8871H129.604C129.786 13.8871 129.944 13.9551 130.08 14.0911C130.216 14.2271 130.284 14.3858 130.284 14.5671C130.284 14.6805 130.262 14.8051 130.216 14.9411L122.328 36.8711C122.238 37.1431 122.102 37.3471 121.92 37.4831C121.739 37.6191 121.49 37.6871 121.172 37.6871H120.22ZM138.536 37.6871C138.309 37.6871 138.128 37.6191 137.992 37.4831C137.856 37.3471 137.788 37.1658 137.788 36.9391V14.6351C137.788 14.4085 137.856 14.2271 137.992 14.0911C138.128 13.9551 138.309 13.8871 138.536 13.8871H139.182C139.409 13.8871 139.59 13.9551 139.726 14.0911C139.862 14.2271 139.93 14.4085 139.93 14.6351V36.9391C139.93 37.1658 139.862 37.3471 139.726 37.4831C139.59 37.6191 139.409 37.6871 139.182 37.6871H138.536ZM156.521 38.0271C154.685 38.0271 153.121 37.7325 151.829 37.1431C150.56 36.5538 149.585 35.7945 148.905 34.8651C148.225 33.9358 147.863 32.9498 147.817 31.9071C147.817 31.7258 147.885 31.5671 148.021 31.4311C148.157 31.2951 148.327 31.2271 148.531 31.2271H149.211C149.438 31.2271 149.608 31.2951 149.721 31.4311C149.857 31.5671 149.937 31.7258 149.959 31.9071C150.05 32.5418 150.333 33.1765 150.809 33.8111C151.285 34.4231 151.988 34.9445 152.917 35.3751C153.847 35.7831 155.048 35.9871 156.521 35.9871C158.743 35.9871 160.363 35.5905 161.383 34.7971C162.403 33.9811 162.913 32.8931 162.913 31.5331C162.913 30.6265 162.641 29.9011 162.097 29.3571C161.576 28.7905 160.771 28.2918 159.683 27.8611C158.595 27.4078 157.201 26.9091 155.501 26.3651C153.892 25.8438 152.566 25.3111 151.523 24.7671C150.481 24.2005 149.71 23.5205 149.211 22.7271C148.735 21.9338 148.497 20.9138 148.497 19.6671C148.497 18.5111 148.803 17.4798 149.415 16.5731C150.027 15.6438 150.911 14.9071 152.067 14.3631C153.246 13.8191 154.674 13.5471 156.351 13.5471C157.689 13.5471 158.856 13.7285 159.853 14.0911C160.851 14.4538 161.678 14.9411 162.335 15.5531C162.993 16.1425 163.491 16.7885 163.831 17.4911C164.171 18.1711 164.353 18.8398 164.375 19.4971C164.375 19.6558 164.319 19.8145 164.205 19.9731C164.092 20.1091 163.911 20.1771 163.661 20.1771H162.981C162.868 20.1771 162.721 20.1318 162.539 20.0411C162.381 19.9505 162.279 19.7691 162.233 19.4971C162.097 18.3638 161.497 17.4345 160.431 16.7091C159.389 15.9611 158.029 15.5871 156.351 15.5871C154.674 15.5871 153.303 15.9158 152.237 16.5731C151.172 17.2305 150.639 18.2618 150.639 19.6671C150.639 20.5738 150.877 21.3218 151.353 21.9111C151.829 22.4778 152.577 22.9878 153.597 23.4411C154.617 23.8718 155.932 24.3478 157.541 24.8691C159.241 25.4131 160.647 25.9571 161.757 26.5011C162.868 27.0451 163.695 27.7138 164.239 28.5071C164.783 29.2778 165.055 30.2865 165.055 31.5331C165.055 32.9158 164.704 34.0945 164.001 35.0691C163.321 36.0211 162.347 36.7578 161.077 37.2791C159.808 37.7778 158.289 38.0271 156.521 38.0271ZM173.775 37.6871C173.549 37.6871 173.367 37.6191 173.231 37.4831C173.095 37.3471 173.027 37.1658 173.027 36.9391V14.6691C173.027 14.4198 173.095 14.2271 173.231 14.0911C173.367 13.9551 173.549 13.8871 173.775 13.8871H187.035C187.285 13.8871 187.477 13.9551 187.613 14.0911C187.749 14.2271 187.817 14.4198 187.817 14.6691V15.1791C187.817 15.4058 187.749 15.5871 187.613 15.7231C187.477 15.8591 187.285 15.9271 187.035 15.9271H175.169V24.5971H186.287C186.537 24.5971 186.729 24.6651 186.865 24.8011C187.001 24.9371 187.069 25.1298 187.069 25.3791V25.8891C187.069 26.1158 187.001 26.2971 186.865 26.4331C186.729 26.5691 186.537 26.6371 186.287 26.6371H175.169V35.6471H187.307C187.557 35.6471 187.749 35.7151 187.885 35.8511C188.021 35.9871 188.089 36.1798 188.089 36.4291V36.9391C188.089 37.1658 188.021 37.3471 187.885 37.4831C187.749 37.6191 187.557 37.6871 187.307 37.6871H173.775Z" fill="white"/>
<path d="M73.8271 53.9465C73.7204 53.9465 73.6297 53.9145 73.5551 53.8505C73.4911 53.7865 73.4591 53.7012 73.4591 53.5945V43.1145C73.4591 42.9972 73.4911 42.9065 73.5551 42.8425C73.6297 42.7785 73.7204 42.7465 73.8271 42.7465H74.2271C74.3337 42.7465 74.4137 42.7732 74.4671 42.8265C74.5204 42.8799 74.5524 42.9225 74.5631 42.9545L78.1951 50.0265L81.8431 42.9545C81.8644 42.9225 81.8964 42.8799 81.9391 42.8265C81.9924 42.7732 82.0724 42.7465 82.1791 42.7465H82.5631C82.6804 42.7465 82.7711 42.7785 82.8351 42.8425C82.8991 42.9065 82.9311 42.9972 82.9311 43.1145V53.5945C82.9311 53.7012 82.8991 53.7865 82.8351 53.8505C82.7711 53.9145 82.6804 53.9465 82.5631 53.9465H82.2751C82.1684 53.9465 82.0831 53.9145 82.0191 53.8505C81.9551 53.7865 81.9231 53.7012 81.9231 53.5945V44.9225L78.8671 50.9385C78.8244 51.0452 78.7604 51.1252 78.6751 51.1785C78.6004 51.2319 78.4991 51.2585 78.3711 51.2585H78.0191C77.8911 51.2585 77.7897 51.2319 77.7151 51.1785C77.6404 51.1252 77.5764 51.0452 77.5231 50.9385L74.4671 44.9225V53.5945C74.4671 53.7012 74.4351 53.7865 74.3711 53.8505C74.3071 53.9145 74.2217 53.9465 74.1151 53.9465H73.8271ZM85.8955 53.9465C85.8101 53.9465 85.7355 53.9145 85.6715 53.8505C85.6075 53.7865 85.5755 53.7119 85.5755 53.6265V45.9785C85.5755 45.8719 85.6075 45.7865 85.6715 45.7225C85.7355 45.6585 85.8208 45.6265 85.9275 45.6265H86.1995C86.3061 45.6265 86.3915 45.6585 86.4555 45.7225C86.5195 45.7865 86.5515 45.8719 86.5515 45.9785V53.1625L86.2635 52.6985L91.4795 45.8665C91.5328 45.8025 91.5861 45.7492 91.6395 45.7065C91.7035 45.6532 91.7888 45.6265 91.8955 45.6265H92.1995C92.2848 45.6265 92.3595 45.6585 92.4235 45.7225C92.4875 45.7759 92.5195 45.8452 92.5195 45.9305V53.5945C92.5195 53.7012 92.4875 53.7865 92.4235 53.8505C92.3595 53.9145 92.2741 53.9465 92.1675 53.9465H91.8955C91.7888 53.9465 91.7035 53.9145 91.6395 53.8505C91.5755 53.7865 91.5435 53.7012 91.5435 53.5945V46.8905L91.8795 46.8105L86.6155 53.7065C86.5728 53.7599 86.5195 53.8132 86.4555 53.8665C86.3915 53.9199 86.3061 53.9465 86.1995 53.9465H85.8955ZM95.3147 56.9865C95.208 56.9865 95.1227 56.9545 95.0587 56.8905C94.9947 56.8265 94.9627 56.7412 94.9627 56.6345V45.9785C94.9627 45.8719 94.9947 45.7865 95.0587 45.7225C95.1227 45.6585 95.208 45.6265 95.3147 45.6265H95.5867C95.6934 45.6265 95.7787 45.6585 95.8427 45.7225C95.9067 45.7865 95.9387 45.8719 95.9387 45.9785V46.7305C96.2054 46.3679 96.552 46.0692 96.9787 45.8345C97.416 45.5892 97.9654 45.4665 98.6267 45.4665C99.256 45.4665 99.784 45.5785 100.211 45.8025C100.637 46.0159 100.984 46.3039 101.251 46.6665C101.517 47.0292 101.715 47.4345 101.843 47.8825C101.971 48.3305 102.04 48.7892 102.051 49.2585C102.061 49.4185 102.067 49.5945 102.067 49.7865C102.067 49.9785 102.061 50.1545 102.051 50.3145C102.04 50.7839 101.971 51.2425 101.843 51.6905C101.715 52.1385 101.517 52.5439 101.251 52.9065C100.984 53.2692 100.637 53.5625 100.211 53.7865C99.784 53.9999 99.256 54.1065 98.6267 54.1065C97.9654 54.1065 97.416 53.9839 96.9787 53.7385C96.552 53.4932 96.2054 53.1945 95.9387 52.8425V56.6345C95.9387 56.7412 95.9067 56.8265 95.8427 56.8905C95.7787 56.9545 95.6934 56.9865 95.5867 56.9865H95.3147ZM98.5307 53.1785C99.16 53.1785 99.656 53.0399 100.019 52.7625C100.381 52.4852 100.643 52.1225 100.803 51.6745C100.963 51.2265 101.053 50.7465 101.075 50.2345C101.085 49.9359 101.085 49.6372 101.075 49.3385C101.053 48.8265 100.963 48.3465 100.803 47.8985C100.643 47.4505 100.381 47.0879 100.019 46.8105C99.656 46.5332 99.16 46.3945 98.5307 46.3945C97.9227 46.3945 97.432 46.5385 97.0587 46.8265C96.6854 47.1145 96.408 47.4772 96.2267 47.9145C96.056 48.3412 95.96 48.7732 95.9387 49.2105C95.928 49.3705 95.9227 49.5785 95.9227 49.8345C95.9227 50.0905 95.928 50.2985 95.9387 50.4585C95.9494 50.8852 96.0454 51.3065 96.2267 51.7225C96.4187 52.1385 96.7014 52.4852 97.0747 52.7625C97.4587 53.0399 97.944 53.1785 98.5307 53.1785ZM111.361 54.1065C110.593 54.1065 109.947 53.9465 109.425 53.6265C108.902 53.3065 108.502 52.8692 108.225 52.3145C107.958 51.7599 107.814 51.1412 107.793 50.4585C107.793 50.1385 107.793 49.8239 107.793 49.5145C107.793 49.1945 107.793 48.8745 107.793 48.5545C107.793 47.5519 107.867 46.7252 108.017 46.0745C108.177 45.4132 108.411 44.8799 108.721 44.4745C109.041 44.0585 109.441 43.7225 109.921 43.4665C110.411 43.2105 110.982 42.9865 111.633 42.7945C112.283 42.6025 113.025 42.3945 113.857 42.1705C113.942 42.1492 114.027 42.1652 114.113 42.2185C114.198 42.2612 114.246 42.3252 114.257 42.4105L114.321 42.7145C114.342 42.8105 114.331 42.8959 114.289 42.9705C114.246 43.0345 114.182 43.0772 114.097 43.0985C113.307 43.3119 112.609 43.4985 112.001 43.6585C111.393 43.8185 110.875 43.9999 110.449 44.2025C110.022 44.4052 109.675 44.6719 109.409 45.0025C109.153 45.3225 108.971 45.7599 108.865 46.3145C108.758 46.8585 108.726 47.5572 108.769 48.4105H108.449C108.481 47.9519 108.641 47.5412 108.929 47.1785C109.227 46.8052 109.606 46.5065 110.065 46.2825C110.523 46.0585 111.009 45.9465 111.521 45.9465C112.235 45.9465 112.838 46.1065 113.329 46.4265C113.83 46.7465 114.214 47.1839 114.481 47.7385C114.747 48.2825 114.891 48.9012 114.913 49.5945C114.934 49.9465 114.934 50.2345 114.913 50.4585C114.891 51.1412 114.742 51.7599 114.465 52.3145C114.198 52.8692 113.803 53.3065 113.281 53.6265C112.769 53.9465 112.129 54.1065 111.361 54.1065ZM111.361 53.1785C112.107 53.1785 112.715 52.9385 113.185 52.4585C113.654 51.9785 113.905 51.2852 113.937 50.3785C113.947 50.2825 113.953 50.1812 113.953 50.0745C113.953 49.9679 113.947 49.8345 113.937 49.6745C113.905 48.7572 113.659 48.0639 113.201 47.5945C112.742 47.1145 112.182 46.8745 111.521 46.8745C110.774 46.8745 110.139 47.1145 109.617 47.5945C109.094 48.0639 108.817 48.7572 108.785 49.6745C108.774 49.8345 108.769 49.9679 108.769 50.0745C108.769 50.1812 108.774 50.2825 108.785 50.3785C108.817 51.2852 109.067 51.9785 109.537 52.4585C110.006 52.9385 110.614 53.1785 111.361 53.1785ZM120.055 54.1065C119.02 54.1065 118.199 53.7705 117.591 53.0985C116.983 52.4159 116.636 51.5252 116.551 50.4265C116.54 50.2665 116.535 50.0532 116.535 49.7865C116.535 49.5199 116.54 49.3065 116.551 49.1465C116.604 48.4212 116.775 47.7812 117.063 47.2265C117.351 46.6719 117.745 46.2399 118.247 45.9305C118.759 45.6212 119.361 45.4665 120.055 45.4665C120.801 45.4665 121.436 45.6319 121.959 45.9625C122.481 46.2932 122.881 46.7679 123.159 47.3865C123.447 48.0052 123.591 48.7412 123.591 49.5945V49.8345C123.591 49.9412 123.553 50.0265 123.479 50.0905C123.415 50.1545 123.329 50.1865 123.223 50.1865H117.527C117.527 50.1865 117.527 50.2079 117.527 50.2505C117.527 50.2932 117.527 50.3252 117.527 50.3465C117.548 50.8265 117.66 51.2852 117.863 51.7225C118.065 52.1492 118.353 52.5012 118.727 52.7785C119.1 53.0452 119.543 53.1785 120.055 53.1785C120.513 53.1785 120.892 53.1092 121.191 52.9705C121.5 52.8319 121.745 52.6825 121.927 52.5225C122.108 52.3519 122.225 52.2239 122.279 52.1385C122.375 51.9999 122.449 51.9199 122.503 51.8985C122.556 51.8665 122.641 51.8505 122.759 51.8505H123.015C123.111 51.8505 123.191 51.8825 123.255 51.9465C123.329 51.9999 123.361 52.0745 123.351 52.1705C123.34 52.3199 123.255 52.5065 123.095 52.7305C122.945 52.9439 122.727 53.1572 122.439 53.3705C122.161 53.5839 121.82 53.7599 121.415 53.8985C121.009 54.0372 120.556 54.1065 120.055 54.1065ZM117.527 49.2905H122.615V49.2265C122.615 48.6932 122.513 48.2132 122.311 47.7865C122.108 47.3599 121.815 47.0239 121.431 46.7785C121.047 46.5225 120.588 46.3945 120.055 46.3945C119.521 46.3945 119.063 46.5225 118.679 46.7785C118.305 47.0239 118.017 47.3599 117.815 47.7865C117.623 48.2132 117.527 48.6932 117.527 49.2265V49.2905ZM128.181 54.1065C127.594 54.1065 127.098 54.0319 126.693 53.8825C126.288 53.7332 125.957 53.5412 125.701 53.3065C125.456 53.0719 125.274 52.8265 125.157 52.5705C125.04 52.3145 124.981 52.0745 124.981 51.8505C124.981 51.7545 125.013 51.6799 125.077 51.6265C125.141 51.5625 125.221 51.5305 125.317 51.5305H125.589C125.685 51.5305 125.765 51.5572 125.829 51.6105C125.893 51.6532 125.941 51.7385 125.973 51.8665C126.112 52.3679 126.389 52.7145 126.805 52.9065C127.232 53.0879 127.744 53.1785 128.341 53.1785C128.725 53.1785 129.082 53.1252 129.413 53.0185C129.744 52.9119 130.005 52.7465 130.197 52.5225C130.4 52.2879 130.501 51.9945 130.501 51.6425C130.501 51.1305 130.357 50.7465 130.069 50.4905C129.781 50.2345 129.344 50.1065 128.757 50.1065H127.893C127.786 50.1065 127.701 50.0745 127.637 50.0105C127.573 49.9465 127.541 49.8612 127.541 49.7545V49.5305C127.541 49.4239 127.573 49.3385 127.637 49.2745C127.701 49.2105 127.786 49.1785 127.893 49.1785H128.645C129.125 49.1785 129.498 49.0825 129.765 48.8905C130.042 48.6985 130.181 48.3839 130.181 47.9465C130.181 47.6905 130.117 47.4452 129.989 47.2105C129.872 46.9759 129.669 46.7839 129.381 46.6345C129.093 46.4745 128.693 46.3945 128.181 46.3945C127.466 46.3945 126.965 46.5225 126.677 46.7785C126.4 47.0239 126.202 47.3865 126.085 47.8665C126.053 47.9945 126.005 48.0852 125.941 48.1385C125.877 48.1812 125.797 48.2025 125.701 48.2025H125.429C125.333 48.2025 125.253 48.1759 125.189 48.1225C125.125 48.0585 125.093 47.9785 125.093 47.8825C125.093 47.5412 125.157 47.2265 125.285 46.9385C125.424 46.6505 125.621 46.3945 125.877 46.1705C126.144 45.9465 126.469 45.7759 126.853 45.6585C127.237 45.5305 127.68 45.4665 128.181 45.4665C128.928 45.4665 129.514 45.5945 129.941 45.8505C130.378 46.1065 130.688 46.4159 130.869 46.7785C131.061 47.1305 131.157 47.4665 131.157 47.7865C131.157 48.2239 131.088 48.5759 130.949 48.8425C130.821 49.1092 130.57 49.3385 130.197 49.5305C130.677 49.7225 131.008 49.9999 131.189 50.3625C131.37 50.7145 131.466 51.1412 131.477 51.6425C131.488 52.2079 131.344 52.6719 131.045 53.0345C130.757 53.3972 130.362 53.6692 129.861 53.8505C129.36 54.0212 128.8 54.1065 128.181 54.1065ZM137.573 53.9465C137.466 53.9465 137.381 53.9145 137.317 53.8505C137.253 53.7865 137.221 53.7012 137.221 53.5945V45.9785C137.221 45.8719 137.253 45.7865 137.317 45.7225C137.381 45.6585 137.466 45.6265 137.573 45.6265H142.101C142.208 45.6265 142.293 45.6585 142.357 45.7225C142.421 45.7865 142.453 45.8719 142.453 45.9785V46.2025C142.453 46.3092 142.421 46.3945 142.357 46.4585C142.293 46.5225 142.208 46.5545 142.101 46.5545H138.197V53.5945C138.197 53.7012 138.165 53.7865 138.101 53.8505C138.037 53.9145 137.952 53.9465 137.845 53.9465H137.573ZM144.117 56.9865C144.01 56.9865 143.925 56.9545 143.861 56.8905C143.797 56.8265 143.765 56.7412 143.765 56.6345V45.9785C143.765 45.8719 143.797 45.7865 143.861 45.7225C143.925 45.6585 144.01 45.6265 144.117 45.6265H144.389C144.495 45.6265 144.581 45.6585 144.645 45.7225C144.709 45.7865 144.741 45.8719 144.741 45.9785V46.7305C145.007 46.3679 145.354 46.0692 145.781 45.8345C146.218 45.5892 146.767 45.4665 147.429 45.4665C148.058 45.4665 148.586 45.5785 149.013 45.8025C149.439 46.0159 149.786 46.3039 150.053 46.6665C150.319 47.0292 150.517 47.4345 150.645 47.8825C150.773 48.3305 150.842 48.7892 150.853 49.2585C150.863 49.4185 150.869 49.5945 150.869 49.7865C150.869 49.9785 150.863 50.1545 150.853 50.3145C150.842 50.7839 150.773 51.2425 150.645 51.6905C150.517 52.1385 150.319 52.5439 150.053 52.9065C149.786 53.2692 149.439 53.5625 149.013 53.7865C148.586 53.9999 148.058 54.1065 147.429 54.1065C146.767 54.1065 146.218 53.9839 145.781 53.7385C145.354 53.4932 145.007 53.1945 144.741 52.8425V56.6345C144.741 56.7412 144.709 56.8265 144.645 56.8905C144.581 56.9545 144.495 56.9865 144.389 56.9865H144.117ZM147.333 53.1785C147.962 53.1785 148.458 53.0399 148.821 52.7625C149.183 52.4852 149.445 52.1225 149.605 51.6745C149.765 51.2265 149.855 50.7465 149.877 50.2345C149.887 49.9359 149.887 49.6372 149.877 49.3385C149.855 48.8265 149.765 48.3465 149.605 47.8985C149.445 47.4505 149.183 47.0879 148.821 46.8105C148.458 46.5332 147.962 46.3945 147.333 46.3945C146.725 46.3945 146.234 46.5385 145.861 46.8265C145.487 47.1145 145.21 47.4772 145.029 47.9145C144.858 48.3412 144.762 48.7732 144.741 49.2105C144.73 49.3705 144.725 49.5785 144.725 49.8345C144.725 50.0905 144.73 50.2985 144.741 50.4585C144.751 50.8852 144.847 51.3065 145.029 51.7225C145.221 52.1385 145.503 52.4852 145.877 52.7625C146.261 53.0399 146.746 53.1785 147.333 53.1785ZM155.125 54.1065C154.613 54.1065 154.139 53.9999 153.701 53.7865C153.275 53.5732 152.928 53.2905 152.661 52.9385C152.395 52.5759 152.261 52.1705 152.261 51.7225C152.261 50.9972 152.555 50.4159 153.141 49.9785C153.728 49.5412 154.491 49.2585 155.429 49.1305L157.957 48.7785V48.2185C157.957 47.6532 157.781 47.2105 157.429 46.8905C157.088 46.5599 156.539 46.3945 155.781 46.3945C155.227 46.3945 154.779 46.5065 154.437 46.7305C154.096 46.9439 153.861 47.2265 153.733 47.5785C153.68 47.7385 153.579 47.8185 153.429 47.8185H153.173C153.045 47.8185 152.955 47.7865 152.901 47.7225C152.848 47.6479 152.821 47.5625 152.821 47.4665C152.821 47.3172 152.875 47.1305 152.981 46.9065C153.099 46.6825 153.275 46.4639 153.509 46.2505C153.744 46.0265 154.048 45.8399 154.421 45.6905C154.795 45.5412 155.248 45.4665 155.781 45.4665C156.411 45.4665 156.928 45.5519 157.333 45.7225C157.749 45.8932 158.069 46.1172 158.293 46.3945C158.528 46.6612 158.693 46.9599 158.789 47.2905C158.885 47.6212 158.933 47.9465 158.933 48.2665V53.5945C158.933 53.7012 158.901 53.7865 158.837 53.8505C158.773 53.9145 158.688 53.9465 158.581 53.9465H158.309C158.203 53.9465 158.117 53.9145 158.053 53.8505C157.989 53.7865 157.957 53.7012 157.957 53.5945V52.8425C157.829 53.0345 157.648 53.2265 157.413 53.4185C157.179 53.6105 156.875 53.7759 156.501 53.9145C156.139 54.0425 155.68 54.1065 155.125 54.1065ZM155.285 53.1785C155.776 53.1785 156.224 53.0719 156.629 52.8585C157.035 52.6452 157.355 52.3199 157.589 51.8825C157.835 51.4345 157.957 50.8745 157.957 50.2025V49.6585L155.893 49.9465C155.019 50.0639 154.357 50.2665 153.909 50.5545C153.461 50.8425 153.237 51.2052 153.237 51.6425C153.237 51.9945 153.339 52.2825 153.541 52.5065C153.744 52.7305 154 52.9012 154.309 53.0185C154.629 53.1252 154.955 53.1785 155.285 53.1785ZM161.656 53.9465C161.549 53.9465 161.464 53.9145 161.4 53.8505C161.336 53.7865 161.304 53.7012 161.304 53.5945V45.9785C161.304 45.8719 161.336 45.7865 161.4 45.7225C161.464 45.6585 161.549 45.6265 161.656 45.6265H161.928C162.034 45.6265 162.12 45.6585 162.184 45.7225C162.248 45.7865 162.28 45.8719 162.28 45.9785V49.2265H167.272V45.9785C167.272 45.8719 167.304 45.7865 167.368 45.7225C167.432 45.6585 167.517 45.6265 167.624 45.6265H167.896C168.002 45.6265 168.088 45.6585 168.152 45.7225C168.216 45.7865 168.248 45.8719 168.248 45.9785V53.5945C168.248 53.7012 168.216 53.7865 168.152 53.8505C168.088 53.9145 168.002 53.9465 167.896 53.9465H167.624C167.517 53.9465 167.432 53.9145 167.368 53.8505C167.304 53.7865 167.272 53.7012 167.272 53.5945V50.1545H162.28V53.5945C162.28 53.7012 162.248 53.7865 162.184 53.8505C162.12 53.9145 162.034 53.9465 161.928 53.9465H161.656ZM170.995 53.9465C170.909 53.9465 170.835 53.9145 170.771 53.8505C170.707 53.7865 170.675 53.7119 170.675 53.6265V45.9785C170.675 45.8719 170.707 45.7865 170.771 45.7225C170.835 45.6585 170.92 45.6265 171.027 45.6265H171.299C171.405 45.6265 171.491 45.6585 171.555 45.7225C171.619 45.7865 171.651 45.8719 171.651 45.9785V53.1625L171.363 52.6985L176.579 45.8665C176.632 45.8025 176.685 45.7492 176.739 45.7065C176.803 45.6532 176.888 45.6265 176.995 45.6265H177.299C177.384 45.6265 177.459 45.6585 177.523 45.7225C177.587 45.7759 177.619 45.8452 177.619 45.9305V53.5945C177.619 53.7012 177.587 53.7865 177.523 53.8505C177.459 53.9145 177.373 53.9465 177.267 53.9465H176.995C176.888 53.9465 176.803 53.9145 176.739 53.8505C176.675 53.7865 176.643 53.7012 176.643 53.5945V46.8905L176.979 46.8105L171.715 53.7065C171.672 53.7599 171.619 53.8132 171.555 53.8665C171.491 53.9199 171.405 53.9465 171.299 53.9465H170.995ZM187.182 56.0265C187.075 56.0265 186.99 55.9945 186.926 55.9305C186.862 55.8665 186.83 55.7812 186.83 55.6745V53.9465H180.398C180.291 53.9465 180.206 53.9145 180.142 53.8505C180.078 53.7865 180.046 53.7012 180.046 53.5945V45.9785C180.046 45.8719 180.078 45.7865 180.142 45.7225C180.206 45.6585 180.291 45.6265 180.398 45.6265H180.67C180.777 45.6265 180.862 45.6585 180.926 45.7225C180.99 45.7865 181.022 45.8719 181.022 45.9785V53.0185H185.694V45.9785C185.694 45.8719 185.726 45.7865 185.79 45.7225C185.854 45.6585 185.939 45.6265 186.046 45.6265H186.318C186.425 45.6265 186.51 45.6585 186.574 45.7225C186.638 45.7865 186.67 45.8719 186.67 45.9785L186.654 53.0185H187.454C187.561 53.0185 187.646 53.0505 187.71 53.1145C187.774 53.1785 187.806 53.2639 187.806 53.3705V55.6745C187.806 55.7812 187.774 55.8665 187.71 55.9305C187.646 55.9945 187.561 56.0265 187.454 56.0265H187.182Z" fill="white"/>
</svg>
