<svg width="190" height="36" viewBox="0 0 190 36" fill="none" xmlns="http://www.w3.org/2000/svg">
<path d="M112.004 4.26562H116.718C118.933 4.26562 120.535 4.60971 121.524 5.29792C122.513 5.98611 123.008 7.07376 123.008 8.56088C123.008 9.58919 122.73 10.4396 122.175 11.1119C121.627 11.7764 120.824 12.2075 119.766 12.4052V12.5239C122.3 12.9748 123.567 14.3591 123.567 16.6768C123.567 18.2271 123.061 19.4373 122.049 20.3076C121.045 21.1777 119.637 21.6127 117.825 21.6127H112.004V4.26562ZM113.944 11.6933H117.141C118.51 11.6933 119.496 11.4718 120.097 11.0289C120.698 10.578 120.999 9.82254 120.999 8.76259C120.999 7.78963 120.664 7.08958 119.995 6.66242C119.325 6.22735 118.259 6.00983 116.798 6.00983H113.944V11.6933ZM113.944 13.4019V19.8923H117.426C118.773 19.8923 119.785 19.6233 120.462 19.0855C121.147 18.5396 121.49 17.6893 121.49 16.5343C121.49 15.4586 121.14 14.6675 120.439 14.1613C119.747 13.6551 118.689 13.4019 117.266 13.4019H113.944Z" fill="white"/>
<path d="M129.391 21.6127V4.26562H131.331V19.7854H138.694V21.6127H129.391Z" fill="white"/>
<path d="M154.24 21.6136L152.161 16.0963H145.473L143.417 21.6136H141.455L148.053 4.19531H149.684L156.249 21.6136H154.24ZM151.557 14.2808L149.617 8.90586C149.365 8.22558 149.107 7.39105 148.84 6.40228C148.673 7.16166 148.433 7.99617 148.12 8.90586L146.158 14.2808H151.557Z" fill="white"/>
<path d="M172.824 21.6127H170.54L164.456 13.2002L162.711 14.8139V21.6127H160.769V4.26562H162.711V12.868L170.278 4.26562H172.572L165.861 11.8001L172.824 21.6127Z" fill="white"/>
<path d="M187.836 21.6136L185.758 16.0963H179.069L177.015 21.6136H175.051L181.649 4.19531H183.281L189.845 21.6136H187.836ZM185.153 14.2808L183.213 8.90586C182.961 8.22558 182.703 7.39105 182.437 6.40228C182.269 7.16166 182.029 7.99617 181.717 8.90586L179.754 14.2808H185.153Z" fill="white"/>
<path d="M106.509 12.9208C106.509 15.6973 105.832 17.8805 104.478 19.4704C103.131 21.0604 101.255 21.8553 98.85 21.8553C96.3919 21.8553 94.4931 21.0761 93.1538 19.5178C91.8221 17.9516 91.1562 15.7447 91.1562 12.897C91.1562 10.0731 91.8259 7.88589 93.1653 6.3355C94.5047 4.7772 96.4072 3.99805 98.8727 3.99805C101.27 3.99805 103.142 4.78905 104.489 6.37108C105.836 7.95314 106.509 10.1363 106.509 12.9208ZM93.211 12.9208C93.211 15.2701 93.6904 17.0539 94.6491 18.272C95.6157 19.4823 97.0159 20.0873 98.85 20.0873C100.699 20.0873 102.096 19.4823 103.039 18.272C103.983 17.0617 104.455 15.2781 104.455 12.9208C104.455 10.5872 103.983 8.81931 103.039 7.61696C102.103 6.40669 100.714 5.80156 98.8727 5.80156C97.0235 5.80156 95.6157 6.41065 94.6491 7.62881C93.6904 8.83908 93.211 10.603 93.211 12.9208Z" fill="#46B4DE"/>
<path d="M69.2881 21.6127V4.26562H71.2287V21.6127H69.2881Z" fill="white"/>
<path d="M82.1178 21.6127H80.1775V6.0573H74.8921V4.26562H87.4031V6.0573H82.1178V21.6127Z" fill="white"/>
<path fill-rule="evenodd" clip-rule="evenodd" d="M6.41261 8.39335C8.00446 7.62553 9.76243 7.30576 11.5105 7.46609L12.9647 7.59946L12.6284 11.5605L11.1743 11.4271C10.0937 11.328 9.00693 11.5257 8.0229 12.0003C7.5467 12.23 7.10051 12.5217 6.69509 12.8684L6.56111 12.983C5.513 13.8793 4.71659 15.0526 4.25568 16.3795L4.2158 16.4944C4.08875 16.8602 3.99199 17.2365 3.9266 17.6195C3.77418 18.5119 3.79426 19.427 3.98568 20.3113L4.14456 21.0453C4.35321 22.0093 4.78748 22.9049 5.40878 23.6527C5.78696 24.1077 6.22879 24.5014 6.71946 24.8202L6.99032 24.9961C7.66478 25.4343 8.40548 25.7511 9.1813 25.9333L9.96401 26.1174C10.2757 26.1904 10.5975 26.2048 10.914 26.1593L11.6597 26.0525C12.0175 26.0011 12.3315 25.778 12.5074 25.4501L15.8486 27.3864C15.0878 28.805 13.7301 29.7697 12.1824 29.9915L11.4367 30.0984C10.665 30.209 9.88046 30.1744 9.12064 29.9959L8.33789 29.8118C7.14281 29.5311 6.00179 29.043 4.96281 28.368L4.69193 28.1921C3.87644 27.6622 3.14213 27.008 2.51355 26.2517C1.4809 25.0087 0.759173 23.5203 0.412363 21.9181L0.253499 21.1841C-0.0494156 19.7848 -0.0812025 18.3367 0.159992 16.9245C0.263476 16.3185 0.416581 15.7229 0.617638 15.144L0.657526 15.0292C1.35189 13.0301 2.55168 11.2625 4.13069 9.91219L4.26469 9.79763C4.92051 9.2368 5.64228 8.76494 6.41261 8.39335Z" fill="#46B4DE"/>
<path fill-rule="evenodd" clip-rule="evenodd" d="M15.896 25.2429C14.1106 22.2798 13.4671 18.7256 14.0944 15.2907C15.1214 9.6666 19.3659 5.27549 24.7815 4.2348L24.948 4.20282C26.4776 3.90884 28.0457 3.90104 29.5781 4.17981L30.1894 4.29102C33.0707 4.81514 35.6519 6.46025 37.4078 8.89172L37.4105 8.89572L39.8488 12.3116L42.921 9.94226L40.4768 6.51815L38.9409 7.70272L40.4709 6.50988C38.1312 3.26703 34.6904 1.07291 30.849 0.374153L30.2375 0.262942C28.2567 -0.0973745 26.2299 -0.0873002 24.2526 0.292689L24.086 0.324672C17.1185 1.66361 11.6573 7.31322 10.336 14.5492C9.52898 18.9685 10.3568 23.5415 12.654 27.3537L12.8349 27.654C15.7914 32.5601 20.8596 35.6638 26.4211 35.9744C32.0293 36.2873 37.4286 33.7201 40.868 29.1048L41.8342 27.8081L38.81 25.3731L37.8436 26.6698C35.173 30.2535 30.9809 32.2467 26.6263 32.0036C22.3079 31.7627 18.3725 29.3526 16.077 25.5432L15.896 25.2429Z" fill="#46B4DE"/>
<path fill-rule="evenodd" clip-rule="evenodd" d="M48.3358 24.3722C49.7399 22.5481 50.247 20.1485 49.7073 17.8807L49.6 17.4301C48.9938 14.8822 47.1017 12.879 44.662 12.2021L44.0486 12.0319C42.5848 11.6258 41.0249 11.8694 39.7406 12.7044L37.7118 9.33321C39.8949 7.9137 42.547 7.49969 45.035 8.18998L45.6486 8.36023C49.4357 9.41093 52.3725 12.5204 53.3136 16.4754L53.4208 16.926C54.2462 20.395 53.4707 24.0658 51.3231 26.8563L51.033 27.2334C49.4465 29.2947 47.1578 30.6423 44.6412 30.997C42.1646 31.346 39.653 30.7072 37.6112 29.2093L36.5605 28.4382L38.7666 25.1895L39.8175 25.9607C41.0691 26.8791 42.609 27.2707 44.1272 27.0567C45.6699 26.8393 47.0732 26.0131 48.0457 24.7493L48.3358 24.3722Z" fill="#46B4DE"/>
<path d="M54.0288 11.2402L55.3027 12.1671C55.8675 12.5782 56.3763 13.0672 56.8148 13.6206C57.362 14.3114 57.7929 15.0937 58.0886 15.9342L58.2319 16.3409C58.8806 18.1839 58.888 20.2049 58.2529 22.0531C57.8505 23.2245 57.2028 24.2882 56.3566 25.168L54.0288 27.5875L55.4871 24.6317C55.9298 23.7345 56.2561 22.7802 56.4573 21.7937C56.7483 20.3676 56.7736 18.8969 56.532 17.461L56.4745 17.1198C56.2626 15.8618 55.8299 14.655 55.1977 13.5598L54.0288 11.2402Z" fill="#46B4DE"/>
<path d="M57.8457 14.1113L59.1993 15.4138C59.7633 15.9565 60.1936 16.6322 60.4543 17.3838C60.8289 18.4646 60.8334 19.6468 60.4665 20.7306L60.4339 20.8269C60.1863 21.5591 59.786 22.2254 59.262 22.7783L57.8457 24.2732L58.7367 22.4394C59.0091 21.8792 59.2095 21.2842 59.3329 20.6698C59.5108 19.7843 59.5263 18.8718 59.3787 17.9804L59.3592 17.8638C59.2186 17.0159 58.944 16.1979 58.5468 15.4431L57.8457 14.1113Z" fill="#46B4DE"/>
<path d="M71.2488 25.1074C72.198 25.1074 72.9135 25.2546 73.3954 25.5493C73.8841 25.8365 74.1286 26.3409 74.1286 27.0626C74.1286 27.5265 74.0045 27.9131 73.7566 28.2222C73.5086 28.524 73.1509 28.7193 72.6834 28.8076V28.8629C73.0021 28.9144 73.2891 29.0101 73.5441 29.1502C73.8062 29.2899 74.0116 29.4888 74.1604 29.7466C74.3092 30.0041 74.3836 30.3392 74.3836 30.7518C74.3836 31.466 74.1462 32.0182 73.6716 32.4085C73.204 32.7988 72.5629 32.9939 71.7483 32.9939H69.0811V25.1074H71.2488ZM71.4401 28.4653C72.0916 28.4653 72.538 28.3584 72.7791 28.1449C73.0199 27.9241 73.1403 27.6 73.1403 27.1729C73.1403 26.7385 72.9915 26.4292 72.694 26.2452C72.4034 26.0536 71.9359 25.9579 71.2913 25.9579H70.0373V28.4653H71.4401ZM70.0373 29.2937V32.1545H71.5676C72.2404 32.1545 72.7081 32.0182 72.9703 31.7458C73.2323 31.4732 73.3635 31.1162 73.3635 30.6744C73.3635 30.2619 73.2253 29.9306 72.949 29.6803C72.6797 29.4225 72.1946 29.2937 71.4932 29.2937H70.0373Z" fill="white"/>
<path d="M78.8236 25.8766C78.0091 25.8766 77.3679 26.1599 76.9002 26.7271C76.4327 27.2939 76.199 28.0709 76.199 29.0577C76.199 30.0369 76.4151 30.8139 76.8471 31.3883C77.2864 31.9551 77.9416 32.2387 78.8131 32.2387C79.146 32.2387 79.4612 32.2092 79.7588 32.1504C80.0564 32.0914 80.3469 32.0179 80.6301 31.9294V32.7911C80.3469 32.9014 80.0527 32.9824 79.7482 33.034C79.4506 33.0855 79.0929 33.1114 78.6748 33.1114C77.9027 33.1114 77.258 32.9457 76.7409 32.6143C76.2238 32.283 75.8341 31.8115 75.572 31.2005C75.317 30.5893 75.1895 29.8713 75.1895 29.0466C75.1895 28.2514 75.3275 27.5517 75.6038 26.9479C75.8872 26.3367 76.3016 25.8618 76.8471 25.523C77.3927 25.1769 78.0549 25.0039 78.8343 25.0039C79.6349 25.0039 80.3327 25.1586 80.9277 25.4678L80.5451 26.3073C80.3114 26.1969 80.0493 26.0974 79.7588 26.0091C79.4754 25.9207 79.1638 25.8766 78.8236 25.8766Z" fill="white"/>
<path d="M86.1007 32.9939H81.8608V25.1074H86.1007V25.9801H82.8173V28.4432H85.9095V29.3047H82.8173V32.1214H86.1007V32.9939Z" fill="white"/>
<path d="M91.6262 25.1074V25.9911H88.3002V32.9939H87.3438V25.1074H91.6262Z" fill="white"/>
<path d="M97.0626 25.1074V32.1104H98.0297V35.0705H97.1158V32.9939H91.8982V35.0705H90.9844V32.1104H91.5688C91.8238 31.6538 92.0646 31.1419 92.2914 30.575C92.5252 30.0079 92.7305 29.4152 92.9078 28.7966C93.0847 28.1706 93.2299 27.5447 93.3434 26.9189C93.4567 26.2929 93.5274 25.6891 93.5559 25.1074H97.0626ZM94.3954 26.0021C94.3669 26.4292 94.2962 26.9115 94.1829 27.449C94.0767 27.9866 93.9384 28.5389 93.7685 29.1059C93.6055 29.6655 93.4212 30.2067 93.2159 30.7296C93.0174 31.2524 92.8049 31.7126 92.5784 32.1104H96.1169V26.0021H94.3954Z" fill="white"/>
<path d="M103.635 32.9957L102.721 30.5546H99.714L98.8107 32.9957H97.8438L100.809 25.0762H101.669L104.623 32.9957H103.635ZM101.584 27.2853C101.563 27.2262 101.528 27.1195 101.478 26.9649C101.428 26.8102 101.379 26.6518 101.329 26.4899C101.287 26.3205 101.251 26.1917 101.223 26.1033C101.173 26.3315 101.117 26.5561 101.053 26.7771C100.989 26.9906 100.936 27.16 100.894 27.2853L100.033 29.6711H102.434L101.584 27.2853Z" fill="white"/>
<path d="M113.137 29.0401C113.137 29.8574 113.003 30.5717 112.733 31.1829C112.471 31.7866 112.082 32.2579 111.564 32.5967C111.047 32.9353 110.406 33.1049 109.641 33.1049C108.855 33.1049 108.199 32.9353 107.675 32.5967C107.158 32.2579 106.772 31.7828 106.517 31.1719C106.262 30.5605 106.134 29.8463 106.134 29.0291C106.134 28.2189 106.262 27.512 106.517 26.9083C106.772 26.3043 107.158 25.833 107.675 25.4944C108.199 25.1556 108.858 24.9863 109.652 24.9863C110.41 24.9863 111.047 25.1556 111.564 25.4944C112.082 25.8258 112.471 26.2971 112.733 26.9083C113.003 27.512 113.137 28.2227 113.137 29.0401ZM107.144 29.0401C107.144 30.0341 107.346 30.8183 107.75 31.3927C108.153 31.9596 108.784 32.2432 109.641 32.2432C110.505 32.2432 111.136 31.9596 111.533 31.3927C111.929 30.8183 112.128 30.0341 112.128 29.0401C112.128 28.0459 111.929 27.2691 111.533 26.7095C111.136 26.1423 110.509 25.859 109.652 25.859C108.795 25.859 108.161 26.1423 107.75 26.7095C107.346 27.2691 107.144 28.0459 107.144 29.0401Z" fill="white"/>
<path d="M116.468 32.9939H115.512V25.9801H113.142V25.1074H118.827V25.9801H116.468V32.9939Z" fill="white"/>
<path d="M124.481 32.9939H123.525V25.9801H121.123C121.059 26.5249 120.989 27.0991 120.911 27.7031C120.833 28.2997 120.755 28.8703 120.677 29.4152C120.599 29.96 120.521 30.4239 120.443 30.8069C120.351 31.3002 120.238 31.72 120.103 32.0662C119.968 32.4122 119.788 32.6736 119.561 32.8504C119.342 33.0271 119.051 33.1155 118.69 33.1155C118.569 33.1155 118.445 33.1007 118.318 33.0712C118.197 33.0492 118.091 33.0196 117.999 32.9829V32.1545C118.077 32.1912 118.165 32.2244 118.265 32.254C118.364 32.276 118.47 32.287 118.583 32.287C118.796 32.287 118.962 32.1987 119.083 32.0219C119.21 31.8378 119.31 31.6133 119.381 31.3482C119.451 31.0756 119.512 30.8069 119.561 30.5418C119.618 30.2619 119.685 29.8533 119.763 29.3158C119.848 28.7708 119.937 28.1374 120.029 27.416C120.128 26.6943 120.227 25.9248 120.326 25.1074H124.481V32.9939Z" fill="white"/>
<path d="M126.129 25.1074H127.022V29.4373C127.022 29.6803 127.018 29.9526 127.011 30.2547C127.004 30.5565 126.993 30.8326 126.979 31.0831C126.972 31.3334 126.961 31.5174 126.947 31.6353H126.99L131.166 25.1074H132.229V32.9939H131.336V28.7083C131.336 28.4357 131.339 28.1449 131.347 27.8356C131.361 27.5265 131.375 27.2428 131.389 26.9852C131.403 26.7275 131.414 26.5433 131.421 26.433H131.378L127.192 32.9939H126.129V25.1074Z" fill="white"/>
<path d="M139.213 32.9939H138.257V29.7576C137.846 29.9048 137.46 30.0263 137.098 30.1222C136.744 30.2105 136.348 30.2547 135.908 30.2547C135.2 30.2547 134.651 30.0852 134.261 29.7466C133.872 29.4004 133.677 28.9033 133.677 28.2554V25.1074H134.633V28.1119C134.633 28.5389 134.739 28.8591 134.952 29.0729C135.172 29.2789 135.522 29.382 136.004 29.382C136.422 29.382 136.798 29.3414 137.13 29.2605C137.463 29.1794 137.839 29.0691 138.257 28.9292V25.1074H139.213V32.9939Z" fill="white"/>
<path d="M146.651 32.9939H145.694V29.3158H141.805V32.9939H140.849V25.1074H141.805V28.4432H145.694V25.1074H146.651V32.9939Z" fill="white"/>
<path d="M148.302 32.9939V25.1074H149.259V28.4432H150.428C151.137 28.4432 151.692 28.5426 152.097 28.7414C152.507 28.9403 152.798 29.2089 152.967 29.5478C153.145 29.8864 153.234 30.2657 153.234 30.6855C153.234 31.3775 153.017 31.9371 152.586 32.3643C152.16 32.7841 151.479 32.9939 150.545 32.9939H148.302ZM154.402 32.9939V25.1074H155.358V32.9939H154.402ZM150.459 32.1545C151.069 32.1545 151.519 32.033 151.809 31.7901C152.099 31.547 152.245 31.1787 152.245 30.6855C152.245 30.1774 152.085 29.8239 151.767 29.6251C151.456 29.4187 150.974 29.3158 150.321 29.3158H149.259V32.1545H150.459Z" fill="white"/>
<path d="M161.231 32.9939H156.992V25.1074H161.231V25.9801H157.947V28.4432H161.04V29.3047H157.947V32.1214H161.231V32.9939Z" fill="white"/>
<path d="M163.765 25.1074H164.657V29.4373C164.657 29.6803 164.652 29.9526 164.647 30.2547C164.64 30.5565 164.628 30.8326 164.614 31.0831C164.607 31.3334 164.596 31.5174 164.582 31.6353H164.624L168.8 25.1074H169.864V32.9939H168.971V28.7083C168.971 28.4357 168.975 28.1449 168.982 27.8356C168.996 27.5265 169.01 27.2428 169.024 26.9852C169.038 26.7275 169.048 26.5433 169.055 26.433H169.013L164.827 32.9939H163.765V25.1074Z" fill="white"/>
<path d="M176.597 25.1074V32.1104H177.563V35.0705H176.65V32.9939H171.433V35.0705H170.519V32.1104H171.103C171.358 31.6538 171.599 31.1419 171.826 30.575C172.06 30.0079 172.264 29.4152 172.442 28.7966C172.619 28.1706 172.764 27.5447 172.877 26.9189C172.991 26.2929 173.062 25.6891 173.09 25.1074H176.597ZM173.93 26.0021C173.902 26.4292 173.83 26.9115 173.717 27.449C173.611 27.9866 173.473 28.5389 173.303 29.1059C173.139 29.6655 172.956 30.2067 172.75 30.7296C172.552 31.2524 172.339 31.7126 172.112 32.1104H175.651V26.0021H173.93Z" fill="white"/>
<path d="M182.65 32.9939H178.41V25.1074H182.65V25.9801H179.367V28.4432H182.46V29.3047H179.367V32.1214H182.65V32.9939Z" fill="white"/>
<path d="M183.9 25.1074H184.792V29.4373C184.792 29.6803 184.789 29.9526 184.782 30.2547C184.775 30.5565 184.764 30.8326 184.75 31.0831C184.743 31.3334 184.733 31.5174 184.718 31.6353H184.761L188.938 25.1074H190V32.9939H189.107V28.7083C189.107 28.4357 189.111 28.1449 189.118 27.8356C189.132 27.5265 189.146 27.2428 189.16 26.9852C189.174 26.7275 189.185 26.5433 189.193 26.433H189.149L184.963 32.9939H183.9V25.1074Z" fill="white"/>
</svg>
