<svg width="25" height="25" viewBox="0 0 25 25" fill="none" xmlns="http://www.w3.org/2000/svg">
<rect width="25" height="25" rx="6" fill="#9179EE"/>
<path fill-rule="evenodd" clip-rule="evenodd" d="M20.8125 12.131C20.8125 6.6854 18.8942 4.1875 12.5 4.1875C6.10577 4.1875 4.1875 6.6854 4.1875 12.131C4.1875 16.0064 5.15905 18.3889 8.02404 19.4406V21.2741C8.02404 21.949 8.87081 22.2572 9.30944 21.7421L10.7878 20.0056C11.3192 20.0516 11.8892 20.0744 12.5 20.0744C18.8942 20.0744 20.8125 17.5765 20.8125 12.131ZM11.1411 18.7531C11.5649 18.7868 12.0174 18.8035 12.5 18.8035C17.9105 18.8035 19.5337 16.7052 19.5337 12.131C19.5337 7.55669 17.9105 5.45845 12.5 5.45845C7.0895 5.45845 5.46635 7.55669 5.46635 12.131C5.46635 15.3642 6.27729 17.3604 8.66346 18.2529V20.9692C8.66346 21.206 8.96058 21.3141 9.11448 21.1334L11.1411 18.7531Z" fill="#BFC8D0"/>
<path d="M12.5 18.3513C12.0111 18.3513 11.5528 18.3343 11.1234 18.3001L9.07051 20.7205C8.91461 20.9043 8.61364 20.7943 8.61364 20.5535V17.7915C6.19648 16.8839 5.375 14.854 5.375 11.5663C5.375 6.91487 7.01923 4.78125 12.5 4.78125C17.9808 4.78125 19.625 6.91487 19.625 11.5663C19.625 16.2177 17.9808 18.3513 12.5 18.3513Z" fill="#9179EE"/>
<path fill-rule="evenodd" clip-rule="evenodd" d="M20.8125 11.5372C20.8125 6.09165 18.8942 3.59375 12.5 3.59375C6.10577 3.59375 4.1875 6.09165 4.1875 11.5372C4.1875 15.4126 5.15905 17.7952 8.02404 18.8469V20.6804C8.02404 21.3552 8.87081 21.6635 9.30944 21.1483L10.7878 19.4119C11.3192 19.4579 11.8892 19.4807 12.5 19.4807C18.8942 19.4807 20.8125 16.9828 20.8125 11.5372ZM11.1411 18.1594C11.5649 18.193 12.0174 18.2097 12.5 18.2097C17.9105 18.2097 19.5337 16.1115 19.5337 11.5372C19.5337 6.96294 17.9105 4.8647 12.5 4.8647C7.0895 4.8647 5.46635 6.96294 5.46635 11.5372C5.46635 14.7705 6.27729 16.7666 8.66346 17.6592V20.3754C8.66346 20.6122 8.96058 20.7204 9.11448 20.5396L11.1411 18.1594Z" fill="white"/>
<path d="M9.85378 10.2049L9.82965 10.2182L9.80838 10.2358C9.64416 10.3717 9.398 10.7445 9.61363 11.2054C9.79331 11.5895 10.1937 12.3738 10.8972 12.9647C11.5852 13.5426 12.3198 13.8535 12.8024 13.9552L12.8327 13.9616H12.8603C12.8617 13.9618 12.8645 13.9621 12.8692 13.9627C12.8807 13.9644 12.8946 13.9667 12.9163 13.9705L12.9675 13.6781L12.9163 13.9705C12.9201 13.9712 12.9239 13.9719 12.928 13.9726C13.0765 13.9989 13.4324 14.0618 13.7308 13.7645C13.9223 13.5737 14.0971 13.3747 14.1723 13.2852C14.2251 13.237 14.3974 13.1372 14.6153 13.2108C15.0279 13.3503 15.5186 13.665 15.7557 13.8246C15.9393 13.9481 16.3549 14.2459 16.5422 14.3811L16.5423 14.3812C16.5579 14.3925 16.5944 14.4293 16.6142 14.4804C16.6299 14.5212 16.6384 14.5774 16.6005 14.6587C16.5301 14.8094 16.3158 15.097 16.0256 15.3487C15.73 15.605 15.4226 15.7656 15.1762 15.7656C15.177 15.7656 15.1762 15.7655 15.1734 15.7651C15.1624 15.7637 15.1216 15.7582 15.0408 15.74C14.9499 15.7196 14.8272 15.6876 14.6772 15.6425C14.3775 15.5523 13.9755 15.4117 13.5111 15.212C12.5816 14.8121 11.4115 14.1789 10.3161 13.2465C9.62702 12.66 8.97691 11.849 8.47069 11.0899C7.96023 10.3244 7.61876 9.64594 7.52582 9.33263L7.51932 9.3107L7.50953 9.29003C7.48639 9.24115 7.45379 9.13671 7.45313 9.01827C7.4525 8.90385 7.48118 8.79455 7.55682 8.7039C7.80621 8.40504 8.07025 8.11135 8.65279 7.82953C8.70705 7.80328 8.79206 7.78014 8.8756 7.77879C8.96126 7.77741 9.00589 7.79869 9.02374 7.81434C9.24663 8.00977 9.59211 8.35478 9.82489 8.64961C9.94514 8.80191 10.0905 8.99539 10.2116 9.16351C10.2721 9.24758 10.3255 9.32381 10.3662 9.38443C10.3866 9.41481 10.4028 9.43991 10.4148 9.45931C10.423 9.4726 10.4274 9.48035 10.4292 9.48369C10.4302 9.48705 10.4348 9.50147 10.4388 9.52765C10.4439 9.56058 10.4463 9.60114 10.4429 9.64352C10.4358 9.73023 10.4073 9.79985 10.3561 9.8468C10.1821 10.0061 9.94628 10.1536 9.85378 10.2049ZM12.6648 6.86946C12.6646 6.86929 12.6644 6.86912 12.6642 6.86895C12.6644 6.86879 12.6646 6.86862 12.6648 6.86844C12.669 6.86443 12.6778 6.85938 12.6915 6.85938C15.0618 6.85938 16.9522 8.66309 16.9531 10.8512C16.9527 10.8517 16.9521 10.8524 16.9512 10.8533C16.9469 10.8573 16.9381 10.8624 16.9244 10.8624C16.9107 10.8624 16.9019 10.8573 16.8976 10.8533C16.8967 10.8524 16.896 10.8517 16.8957 10.8512C16.8947 8.6403 14.9956 6.87853 12.6915 6.87853C12.6778 6.87853 12.669 6.87347 12.6648 6.86946ZM12.6648 9.32107C12.6646 9.3209 12.6644 9.32073 12.6642 9.32056C12.6644 9.3204 12.6646 9.32023 12.6648 9.32006C12.669 9.31605 12.6778 9.31099 12.6915 9.31099C13.6231 9.31099 14.3473 10.0171 14.3483 10.8512C14.3479 10.8517 14.3473 10.8524 14.3463 10.8533C14.3421 10.8573 14.3333 10.8624 14.3196 10.8624C14.3058 10.8624 14.297 10.8573 14.2928 10.8533C14.2918 10.8524 14.2912 10.8517 14.2908 10.8512C14.2899 9.99432 13.557 9.33014 12.6915 9.33014C12.6778 9.33014 12.669 9.32508 12.6648 9.32107ZM12.6648 8.09527C12.6646 8.09509 12.6644 8.09492 12.6642 8.09476C12.6644 8.09459 12.6646 8.09442 12.6648 8.09425C12.669 8.09024 12.6778 8.08518 12.6915 8.08518C14.3425 8.08518 15.6498 9.34008 15.6507 10.8512C15.6503 10.8517 15.6497 10.8524 15.6487 10.8533C15.6445 10.8573 15.6357 10.8624 15.622 10.8624C15.6082 10.8624 15.5995 10.8573 15.5952 10.8533C15.5942 10.8524 15.5936 10.8517 15.5932 10.8512C15.5923 9.31731 14.2763 8.10433 12.6915 8.10433C12.6778 8.10433 12.669 8.09927 12.6648 8.09527Z" fill="white" stroke="white" stroke-width="0.59375" stroke-linecap="round"/>
</svg>
