<svg width="24" height="23" viewBox="0 0 24 23" fill="none" xmlns="http://www.w3.org/2000/svg">
<path fill-rule="evenodd" clip-rule="evenodd" d="M12.1973 22.2812C17.7546 22.2812 22.2598 17.7761 22.2598 12.2188C22.2598 6.66138 17.7546 2.15625 12.1973 2.15625C6.6399 2.15625 2.13477 6.66138 2.13477 12.2188C2.13477 14.0234 2.60986 15.7172 3.44179 17.1817L2.13477 22.2812L7.39232 21.0621C8.82013 21.8395 10.4571 22.2812 12.1973 22.2812ZM12.1973 20.7332C16.8997 20.7332 20.7117 16.9211 20.7117 12.2188C20.7117 7.51636 16.8997 3.70433 12.1973 3.70433C7.49488 3.70433 3.68284 7.51636 3.68284 12.2188C3.68284 14.0344 4.25113 15.7172 5.21953 17.0992L4.45688 19.9591L7.36722 19.2316C8.73962 20.1786 10.4037 20.7332 12.1973 20.7332Z" fill="#BFC8D0"/>
<path d="M20.8223 11.5C20.8223 16.2635 16.9607 20.125 12.1973 20.125C10.3804 20.125 8.69472 19.5632 7.30449 18.6039L4.35636 19.3409L5.12891 16.4439C4.14793 15.0439 3.57227 13.3392 3.57227 11.5C3.57227 6.73654 7.43381 2.875 12.1973 2.875C16.9607 2.875 20.8223 6.73654 20.8223 11.5Z" stroke="white"/>
<path fill-rule="evenodd" clip-rule="evenodd" d="M12.1973 21.5625C17.7546 21.5625 22.2598 17.0574 22.2598 11.5C22.2598 5.94263 17.7546 1.4375 12.1973 1.4375C6.6399 1.4375 2.13477 5.94263 2.13477 11.5C2.13477 13.3047 2.60986 14.9984 3.44179 16.4629L2.13477 21.5625L7.39232 20.3434C8.82013 21.1208 10.4571 21.5625 12.1973 21.5625ZM12.1973 20.0144C16.8997 20.0144 20.7117 16.2024 20.7117 11.5C20.7117 6.79761 16.8997 2.98558 12.1973 2.98558C7.49488 2.98558 3.68284 6.79761 3.68284 11.5C3.68284 13.3156 4.25113 14.9985 5.21953 16.3805L4.45688 19.2404L7.36722 18.5128C8.73962 19.4598 10.4037 20.0144 12.1973 20.0144Z" fill="white"/>
<path d="M9.68068 6.82812C9.44143 6.34758 9.07442 6.39012 8.70365 6.39012C8.04102 6.39012 7.00781 7.18382 7.00781 8.66098C7.00781 9.87159 7.54127 11.1968 9.33884 13.1792C11.0736 15.0923 13.353 16.082 15.2454 16.0483C17.1377 16.0146 17.527 14.3862 17.527 13.8362C17.527 13.5925 17.3758 13.4709 17.2716 13.4378C16.6267 13.1284 15.4374 12.5517 15.1668 12.4434C14.8961 12.335 14.7548 12.4816 14.667 12.5613C14.4216 12.7952 13.9351 13.4844 13.7686 13.6394C13.602 13.7944 13.3537 13.716 13.2503 13.6574C12.8701 13.5048 11.839 13.0462 11.0172 12.2495C10.0007 11.2642 9.94109 10.9252 9.74959 10.6234C9.5964 10.382 9.70881 10.2339 9.76491 10.1692C9.9839 9.9165 10.2863 9.52638 10.4219 9.33252C10.5575 9.13865 10.4498 8.84431 10.3852 8.66098C10.1074 7.87255 9.87208 7.21255 9.68068 6.82812Z" fill="white"/>
</svg>
